<mxfile host="app.diagrams.net" modified="2023-02-28T20:01:41.794Z" agent="5.0 (Windows NT 10.0; Win64; x64) AppleWebKit/537.36 (KHTML, like Gecko) Chrome/110.0.0.0 Safari/537.36" etag="2I_6Ku9fxxLx4Rb-f4RC" version="20.8.23" type="github" pages="6">
  <diagram name="Drone system" id="3erW-oo5LQT0Ui6R0Lin">
    <mxGraphModel dx="1232" dy="1089" grid="1" gridSize="10" guides="1" tooltips="1" connect="1" arrows="1" fold="1" page="1" pageScale="1" pageWidth="850" pageHeight="1100" math="0" shadow="0">
      <root>
        <mxCell id="0" />
        <mxCell id="1" parent="0" />
        <mxCell id="G1QavCdpPOb3-exbz2O6-1" value="Drone system" style="swimlane;whiteSpace=wrap;html=1;" parent="1" vertex="1">
          <mxGeometry x="80" y="80" width="320" height="740" as="geometry" />
        </mxCell>
        <mxCell id="G1QavCdpPOb3-exbz2O6-2" value="" style="edgeStyle=orthogonalEdgeStyle;rounded=0;orthogonalLoop=1;jettySize=auto;html=1;fontSize=9;" parent="G1QavCdpPOb3-exbz2O6-1" source="G1QavCdpPOb3-exbz2O6-3" target="G1QavCdpPOb3-exbz2O6-5" edge="1">
          <mxGeometry relative="1" as="geometry" />
        </mxCell>
        <mxCell id="G1QavCdpPOb3-exbz2O6-3" value="" style="ellipse;whiteSpace=wrap;html=1;aspect=fixed;fillColor=#000000;" parent="G1QavCdpPOb3-exbz2O6-1" vertex="1">
          <mxGeometry x="120" y="40" width="30" height="30" as="geometry" />
        </mxCell>
        <mxCell id="G1QavCdpPOb3-exbz2O6-4" style="edgeStyle=orthogonalEdgeStyle;rounded=0;orthogonalLoop=1;jettySize=auto;html=1;entryX=0.5;entryY=0;entryDx=0;entryDy=0;fontSize=9;" parent="G1QavCdpPOb3-exbz2O6-1" source="G1QavCdpPOb3-exbz2O6-5" edge="1">
          <mxGeometry relative="1" as="geometry">
            <mxPoint x="135.005" y="190" as="targetPoint" />
          </mxGeometry>
        </mxCell>
        <mxCell id="G1QavCdpPOb3-exbz2O6-5" value="Elevate to 10m" style="rounded=1;whiteSpace=wrap;html=1;fillColor=#FFFFFF;" parent="G1QavCdpPOb3-exbz2O6-1" vertex="1">
          <mxGeometry x="88.76" y="100" width="92.5" height="50" as="geometry" />
        </mxCell>
        <mxCell id="G1QavCdpPOb3-exbz2O6-6" value="" style="edgeStyle=orthogonalEdgeStyle;rounded=0;orthogonalLoop=1;jettySize=auto;html=1;fontSize=9;" parent="G1QavCdpPOb3-exbz2O6-1" source="G1QavCdpPOb3-exbz2O6-7" target="G1QavCdpPOb3-exbz2O6-10" edge="1">
          <mxGeometry relative="1" as="geometry" />
        </mxCell>
        <mxCell id="G1QavCdpPOb3-exbz2O6-7" value="Move horizontally to next checkpoint" style="rounded=1;whiteSpace=wrap;html=1;fillColor=#FFFFFF;" parent="G1QavCdpPOb3-exbz2O6-1" vertex="1">
          <mxGeometry x="85.32000000000001" y="170" width="99.38" height="50" as="geometry" />
        </mxCell>
        <mxCell id="G1QavCdpPOb3-exbz2O6-8" value="" style="edgeStyle=orthogonalEdgeStyle;rounded=0;orthogonalLoop=1;jettySize=auto;html=1;fontSize=9;" parent="G1QavCdpPOb3-exbz2O6-1" source="G1QavCdpPOb3-exbz2O6-10" target="G1QavCdpPOb3-exbz2O6-12" edge="1">
          <mxGeometry relative="1" as="geometry" />
        </mxCell>
        <mxCell id="G1QavCdpPOb3-exbz2O6-9" value="No" style="edgeLabel;html=1;align=center;verticalAlign=middle;resizable=0;points=[];" parent="G1QavCdpPOb3-exbz2O6-8" vertex="1" connectable="0">
          <mxGeometry x="-0.3345" y="1" relative="1" as="geometry">
            <mxPoint as="offset" />
          </mxGeometry>
        </mxCell>
        <mxCell id="G1QavCdpPOb3-exbz2O6-10" value="" style="rhombus;whiteSpace=wrap;html=1;fillColor=#FFFFFF;" parent="G1QavCdpPOb3-exbz2O6-1" vertex="1">
          <mxGeometry x="114.38999999999999" y="250" width="41.25" height="40" as="geometry" />
        </mxCell>
        <mxCell id="G1QavCdpPOb3-exbz2O6-11" value="Last check_point?" style="text;html=1;align=center;verticalAlign=middle;resizable=0;points=[];autosize=1;strokeColor=none;fillColor=none;fontSize=9;" parent="G1QavCdpPOb3-exbz2O6-1" vertex="1">
          <mxGeometry x="130" y="230" width="100" height="20" as="geometry" />
        </mxCell>
        <mxCell id="G1QavCdpPOb3-exbz2O6-12" value="Take picture" style="rounded=1;whiteSpace=wrap;html=1;fillColor=#FFFFFF;" parent="G1QavCdpPOb3-exbz2O6-1" vertex="1">
          <mxGeometry x="210" y="250" width="76.25" height="40" as="geometry" />
        </mxCell>
        <mxCell id="G1QavCdpPOb3-exbz2O6-13" value="Send picture to the server" style="rounded=1;whiteSpace=wrap;html=1;fillColor=#FFFFFF;" parent="G1QavCdpPOb3-exbz2O6-1" vertex="1">
          <mxGeometry x="210" y="310" width="76.25" height="40" as="geometry" />
        </mxCell>
        <mxCell id="G1QavCdpPOb3-exbz2O6-14" value="" style="endArrow=classic;html=1;rounded=0;fontSize=9;exitX=0.5;exitY=1;exitDx=0;exitDy=0;" parent="G1QavCdpPOb3-exbz2O6-1" source="G1QavCdpPOb3-exbz2O6-12" target="G1QavCdpPOb3-exbz2O6-13" edge="1">
          <mxGeometry width="50" height="50" relative="1" as="geometry">
            <mxPoint x="240" y="260" as="sourcePoint" />
            <mxPoint x="290" y="210" as="targetPoint" />
          </mxGeometry>
        </mxCell>
        <mxCell id="3V2a9M4K4vM3brNOxnh2-7" style="edgeStyle=orthogonalEdgeStyle;rounded=0;orthogonalLoop=1;jettySize=auto;html=1;exitX=0.75;exitY=0;exitDx=0;exitDy=0;fontFamily=Helvetica;fontSize=12;fontColor=default;" parent="G1QavCdpPOb3-exbz2O6-1" source="G1QavCdpPOb3-exbz2O6-15" edge="1">
          <mxGeometry relative="1" as="geometry">
            <mxPoint x="60" y="400" as="targetPoint" />
            <Array as="points">
              <mxPoint x="60" y="463" />
              <mxPoint x="60" y="402" />
            </Array>
          </mxGeometry>
        </mxCell>
        <mxCell id="G1QavCdpPOb3-exbz2O6-15" value="rr" style="shape=ext;double=1;rounded=0;whiteSpace=wrap;html=1;strokeColor=#000000;strokeWidth=0;fontSize=9;fillColor=#000000;rotation=-90;" parent="G1QavCdpPOb3-exbz2O6-1" vertex="1">
          <mxGeometry x="66" y="480" width="90" height="10" as="geometry" />
        </mxCell>
        <mxCell id="G1QavCdpPOb3-exbz2O6-16" value="" style="endArrow=classic;html=1;rounded=0;entryX=0;entryY=0.5;entryDx=0;entryDy=0;exitX=0.413;exitY=0.012;exitDx=0;exitDy=0;exitPerimeter=0;" parent="G1QavCdpPOb3-exbz2O6-1" source="3V2a9M4K4vM3brNOxnh2-5" target="G1QavCdpPOb3-exbz2O6-7" edge="1">
          <mxGeometry width="50" height="50" relative="1" as="geometry">
            <mxPoint x="40" y="330" as="sourcePoint" />
            <mxPoint x="90" y="470" as="targetPoint" />
            <Array as="points">
              <mxPoint x="40" y="195" />
            </Array>
          </mxGeometry>
        </mxCell>
        <mxCell id="G1QavCdpPOb3-exbz2O6-17" value="Identify car owner" style="rounded=1;whiteSpace=wrap;html=1;fillColor=#FFFFFF;" parent="G1QavCdpPOb3-exbz2O6-1" vertex="1">
          <mxGeometry x="230" y="560" width="76.25" height="40" as="geometry" />
        </mxCell>
        <mxCell id="G1QavCdpPOb3-exbz2O6-18" value="" style="endArrow=classic;html=1;rounded=0;exitX=0.5;exitY=1;exitDx=0;exitDy=0;" parent="G1QavCdpPOb3-exbz2O6-1" source="G1QavCdpPOb3-exbz2O6-10" edge="1">
          <mxGeometry width="50" height="50" relative="1" as="geometry">
            <mxPoint x="80" y="350" as="sourcePoint" />
            <mxPoint x="135" y="330" as="targetPoint" />
          </mxGeometry>
        </mxCell>
        <mxCell id="G1QavCdpPOb3-exbz2O6-19" value="Yes" style="edgeLabel;html=1;align=center;verticalAlign=middle;resizable=0;points=[];" parent="G1QavCdpPOb3-exbz2O6-18" vertex="1" connectable="0">
          <mxGeometry x="-0.5147" y="1" relative="1" as="geometry">
            <mxPoint as="offset" />
          </mxGeometry>
        </mxCell>
        <mxCell id="G1QavCdpPOb3-exbz2O6-20" value="" style="edgeStyle=orthogonalEdgeStyle;rounded=0;orthogonalLoop=1;jettySize=auto;html=1;" parent="G1QavCdpPOb3-exbz2O6-1" source="G1QavCdpPOb3-exbz2O6-21" target="G1QavCdpPOb3-exbz2O6-22" edge="1">
          <mxGeometry relative="1" as="geometry" />
        </mxCell>
        <mxCell id="G1QavCdpPOb3-exbz2O6-21" value="Land on the station" style="rounded=1;whiteSpace=wrap;html=1;fillColor=#FFFFFF;" parent="G1QavCdpPOb3-exbz2O6-1" vertex="1">
          <mxGeometry x="85.33000000000001" y="330" width="99.38" height="50" as="geometry" />
        </mxCell>
        <mxCell id="G1QavCdpPOb3-exbz2O6-22" value="" style="ellipse;html=1;shape=endState;fillColor=#000000;strokeColor=#ff0000;" parent="G1QavCdpPOb3-exbz2O6-1" vertex="1">
          <mxGeometry x="120.02" y="400" width="30" height="30" as="geometry" />
        </mxCell>
        <mxCell id="G1QavCdpPOb3-exbz2O6-23" style="edgeStyle=orthogonalEdgeStyle;rounded=0;orthogonalLoop=1;jettySize=auto;html=1;exitX=0;exitY=0.5;exitDx=0;exitDy=0;entryX=0.5;entryY=1;entryDx=0;entryDy=0;" parent="G1QavCdpPOb3-exbz2O6-1" target="G1QavCdpPOb3-exbz2O6-15" edge="1">
          <mxGeometry relative="1" as="geometry">
            <mxPoint x="114.40000000000009" y="485" as="sourcePoint" />
          </mxGeometry>
        </mxCell>
        <mxCell id="3V2a9M4K4vM3brNOxnh2-5" value="rr" style="shape=ext;double=1;rounded=0;whiteSpace=wrap;html=1;strokeColor=#000000;strokeWidth=0;fontSize=9;fillColor=#000000;rotation=0;" parent="G1QavCdpPOb3-exbz2O6-1" vertex="1">
          <mxGeometry x="2.0000000000000018" y="390" width="90" height="10" as="geometry" />
        </mxCell>
        <mxCell id="G1QavCdpPOb3-exbz2O6-25" value="SMU" style="swimlane;whiteSpace=wrap;html=1;strokeColor=#000000;strokeWidth=1;fontSize=9;fillColor=#FFFFFF;" parent="1" vertex="1">
          <mxGeometry x="400" y="80" width="260" height="740" as="geometry" />
        </mxCell>
        <mxCell id="3V2a9M4K4vM3brNOxnh2-2" style="edgeStyle=orthogonalEdgeStyle;rounded=0;orthogonalLoop=1;jettySize=auto;html=1;entryX=0.456;entryY=0.055;entryDx=0;entryDy=0;entryPerimeter=0;fontFamily=Helvetica;fontSize=12;fontColor=default;" parent="G1QavCdpPOb3-exbz2O6-25" source="G1QavCdpPOb3-exbz2O6-27" target="3V2a9M4K4vM3brNOxnh2-1" edge="1">
          <mxGeometry relative="1" as="geometry" />
        </mxCell>
        <mxCell id="G1QavCdpPOb3-exbz2O6-27" value="classify cars" style="rounded=1;whiteSpace=wrap;html=1;fillColor=#FFFFFF;" parent="G1QavCdpPOb3-exbz2O6-25" vertex="1">
          <mxGeometry x="16.870000000000005" y="310" width="76.25" height="40" as="geometry" />
        </mxCell>
        <mxCell id="G1QavCdpPOb3-exbz2O6-28" style="edgeStyle=orthogonalEdgeStyle;rounded=0;orthogonalLoop=1;jettySize=auto;html=1;entryX=0.5;entryY=0;entryDx=0;entryDy=0;strokeWidth=1;fontSize=9;" parent="G1QavCdpPOb3-exbz2O6-25" source="G1QavCdpPOb3-exbz2O6-29" target="G1QavCdpPOb3-exbz2O6-33" edge="1">
          <mxGeometry relative="1" as="geometry">
            <mxPoint x="64.995" y="440" as="targetPoint" />
          </mxGeometry>
        </mxCell>
        <mxCell id="G1QavCdpPOb3-exbz2O6-29" value="" style="shape=ext;double=1;rounded=0;whiteSpace=wrap;html=1;strokeColor=#000000;strokeWidth=1;fontSize=9;fillColor=#000000;" parent="G1QavCdpPOb3-exbz2O6-25" vertex="1">
          <mxGeometry x="10" y="400" width="90" height="10" as="geometry" />
        </mxCell>
        <mxCell id="G1QavCdpPOb3-exbz2O6-30" value="for each car" style="text;html=1;align=center;verticalAlign=middle;resizable=0;points=[];autosize=1;strokeColor=none;fillColor=none;fontSize=9;" parent="G1QavCdpPOb3-exbz2O6-25" vertex="1">
          <mxGeometry x="61.870000000000005" y="380" width="70" height="20" as="geometry" />
        </mxCell>
        <mxCell id="G1QavCdpPOb3-exbz2O6-31" style="edgeStyle=orthogonalEdgeStyle;rounded=0;orthogonalLoop=1;jettySize=auto;html=1;exitX=0.5;exitY=1;exitDx=0;exitDy=0;entryX=0.5;entryY=0;entryDx=0;entryDy=0;" parent="G1QavCdpPOb3-exbz2O6-25" source="G1QavCdpPOb3-exbz2O6-33" target="G1QavCdpPOb3-exbz2O6-37" edge="1">
          <mxGeometry relative="1" as="geometry" />
        </mxCell>
        <mxCell id="G1QavCdpPOb3-exbz2O6-32" value="no" style="edgeLabel;html=1;align=center;verticalAlign=middle;resizable=0;points=[];" parent="G1QavCdpPOb3-exbz2O6-31" connectable="0" vertex="1">
          <mxGeometry x="-0.0782" y="4" relative="1" as="geometry">
            <mxPoint x="6" y="-6" as="offset" />
          </mxGeometry>
        </mxCell>
        <mxCell id="G1QavCdpPOb3-exbz2O6-33" value="" style="rhombus;whiteSpace=wrap;html=1;fillColor=#FFFFFF;" parent="G1QavCdpPOb3-exbz2O6-25" vertex="1">
          <mxGeometry x="34.38" y="440" width="41.25" height="40" as="geometry" />
        </mxCell>
        <mxCell id="G1QavCdpPOb3-exbz2O6-34" value="car boundaries &lt;br&gt;inside parking&lt;br&gt;&amp;nbsp;boundary?" style="text;html=1;align=center;verticalAlign=middle;resizable=0;points=[];autosize=1;strokeColor=none;fillColor=none;fontSize=9;" parent="G1QavCdpPOb3-exbz2O6-25" vertex="1">
          <mxGeometry x="71.87" y="435" width="80" height="50" as="geometry" />
        </mxCell>
        <mxCell id="G1QavCdpPOb3-exbz2O6-36" style="edgeStyle=orthogonalEdgeStyle;rounded=0;orthogonalLoop=1;jettySize=auto;html=1;entryX=0.5;entryY=0;entryDx=0;entryDy=0;exitX=0.75;exitY=1;exitDx=0;exitDy=0;" parent="G1QavCdpPOb3-exbz2O6-25" source="G1QavCdpPOb3-exbz2O6-37" target="G1QavCdpPOb3-exbz2O6-40" edge="1">
          <mxGeometry relative="1" as="geometry" />
        </mxCell>
        <mxCell id="G1QavCdpPOb3-exbz2O6-37" value="" style="shape=ext;double=1;rounded=0;whiteSpace=wrap;html=1;strokeColor=#000000;strokeWidth=1;fontSize=9;fillColor=#000000;" parent="G1QavCdpPOb3-exbz2O6-25" vertex="1">
          <mxGeometry x="10.00000000000001" y="505" width="90" height="10" as="geometry" />
        </mxCell>
        <mxCell id="G1QavCdpPOb3-exbz2O6-38" style="edgeStyle=orthogonalEdgeStyle;rounded=0;orthogonalLoop=1;jettySize=auto;html=1;entryX=0.75;entryY=0;entryDx=0;entryDy=0;" parent="G1QavCdpPOb3-exbz2O6-25" source="G1QavCdpPOb3-exbz2O6-40" target="G1QavCdpPOb3-exbz2O6-42" edge="1">
          <mxGeometry relative="1" as="geometry">
            <Array as="points">
              <mxPoint x="114" y="610" />
              <mxPoint x="71" y="610" />
            </Array>
          </mxGeometry>
        </mxCell>
        <mxCell id="G1QavCdpPOb3-exbz2O6-39" value="Fine/ black-points" style="edgeLabel;html=1;align=center;verticalAlign=middle;resizable=0;points=[];" parent="G1QavCdpPOb3-exbz2O6-38" vertex="1" connectable="0">
          <mxGeometry x="0.472" relative="1" as="geometry">
            <mxPoint x="26" as="offset" />
          </mxGeometry>
        </mxCell>
        <mxCell id="G1QavCdpPOb3-exbz2O6-40" value="Classify violation type and fine" style="rounded=1;whiteSpace=wrap;html=1;fillColor=#FFFFFF;" parent="G1QavCdpPOb3-exbz2O6-25" vertex="1">
          <mxGeometry x="75.62" y="560" width="76.25" height="40" as="geometry" />
        </mxCell>
        <mxCell id="G1QavCdpPOb3-exbz2O6-42" value="Add the violation record&amp;nbsp;" style="rounded=1;whiteSpace=wrap;html=1;fillColor=#FFFFFF;" parent="G1QavCdpPOb3-exbz2O6-25" vertex="1">
          <mxGeometry x="13.75" y="640" width="76.25" height="40" as="geometry" />
        </mxCell>
        <mxCell id="3V2a9M4K4vM3brNOxnh2-3" style="edgeStyle=orthogonalEdgeStyle;rounded=0;orthogonalLoop=1;jettySize=auto;html=1;entryX=0.5;entryY=0;entryDx=0;entryDy=0;fontFamily=Helvetica;fontSize=12;fontColor=default;exitX=0.348;exitY=1.044;exitDx=0;exitDy=0;exitPerimeter=0;" parent="G1QavCdpPOb3-exbz2O6-25" source="3V2a9M4K4vM3brNOxnh2-1" target="G1QavCdpPOb3-exbz2O6-29" edge="1">
          <mxGeometry relative="1" as="geometry">
            <mxPoint x="150" y="340" as="sourcePoint" />
            <Array as="points">
              <mxPoint x="160" y="340" />
              <mxPoint x="160" y="380" />
              <mxPoint x="55" y="380" />
            </Array>
          </mxGeometry>
        </mxCell>
        <mxCell id="3V2a9M4K4vM3brNOxnh2-9" style="edgeStyle=orthogonalEdgeStyle;rounded=0;orthogonalLoop=1;jettySize=auto;html=1;exitX=0.75;exitY=1;exitDx=0;exitDy=0;entryX=0.5;entryY=0;entryDx=0;entryDy=0;fontFamily=Helvetica;fontSize=12;fontColor=default;" parent="G1QavCdpPOb3-exbz2O6-25" source="3V2a9M4K4vM3brNOxnh2-1" target="3V2a9M4K4vM3brNOxnh2-8" edge="1">
          <mxGeometry relative="1" as="geometry" />
        </mxCell>
        <mxCell id="3V2a9M4K4vM3brNOxnh2-1" value="" style="shape=ext;double=1;rounded=0;whiteSpace=wrap;html=1;strokeColor=#000000;strokeWidth=1;fontSize=9;fillColor=#000000;rotation=-90;" parent="G1QavCdpPOb3-exbz2O6-25" vertex="1">
          <mxGeometry x="93.12" y="321" width="90" height="10" as="geometry" />
        </mxCell>
        <mxCell id="3V2a9M4K4vM3brNOxnh2-11" style="edgeStyle=orthogonalEdgeStyle;rounded=0;orthogonalLoop=1;jettySize=auto;html=1;entryX=0.5;entryY=0;entryDx=0;entryDy=0;fontFamily=Helvetica;fontSize=12;fontColor=default;" parent="G1QavCdpPOb3-exbz2O6-25" source="3V2a9M4K4vM3brNOxnh2-8" target="3V2a9M4K4vM3brNOxnh2-10" edge="1">
          <mxGeometry relative="1" as="geometry" />
        </mxCell>
        <mxCell id="3V2a9M4K4vM3brNOxnh2-8" value="Find the available parking" style="rounded=1;whiteSpace=wrap;html=1;fillColor=#FFFFFF;" parent="G1QavCdpPOb3-exbz2O6-25" vertex="1">
          <mxGeometry x="174.99" y="350" width="76.25" height="40" as="geometry" />
        </mxCell>
        <mxCell id="3V2a9M4K4vM3brNOxnh2-10" value="Update parking details" style="rounded=1;whiteSpace=wrap;html=1;fillColor=#FFFFFF;" parent="G1QavCdpPOb3-exbz2O6-25" vertex="1">
          <mxGeometry x="174.99" y="440" width="76.25" height="40" as="geometry" />
        </mxCell>
        <mxCell id="G1QavCdpPOb3-exbz2O6-43" style="edgeStyle=orthogonalEdgeStyle;rounded=0;orthogonalLoop=1;jettySize=auto;html=1;entryX=0;entryY=0.5;entryDx=0;entryDy=0;strokeWidth=1;fontSize=9;" parent="1" source="G1QavCdpPOb3-exbz2O6-13" target="G1QavCdpPOb3-exbz2O6-27" edge="1">
          <mxGeometry relative="1" as="geometry" />
        </mxCell>
        <mxCell id="G1QavCdpPOb3-exbz2O6-45" value="" style="endArrow=classic;html=1;rounded=0;exitX=0;exitY=0.5;exitDx=0;exitDy=0;" parent="1" source="G1QavCdpPOb3-exbz2O6-33" target="G1QavCdpPOb3-exbz2O6-15" edge="1">
          <mxGeometry width="50" height="50" relative="1" as="geometry">
            <mxPoint x="230" y="540" as="sourcePoint" />
            <mxPoint x="235.6500000000001" y="565" as="targetPoint" />
            <Array as="points">
              <mxPoint x="380" y="540" />
              <mxPoint x="380" y="565" />
            </Array>
          </mxGeometry>
        </mxCell>
        <mxCell id="G1QavCdpPOb3-exbz2O6-46" value="yes" style="edgeLabel;html=1;align=center;verticalAlign=middle;resizable=0;points=[];" parent="G1QavCdpPOb3-exbz2O6-45" connectable="0" vertex="1">
          <mxGeometry x="-0.8997" relative="1" as="geometry">
            <mxPoint x="-4" y="-10" as="offset" />
          </mxGeometry>
        </mxCell>
        <mxCell id="G1QavCdpPOb3-exbz2O6-47" style="edgeStyle=orthogonalEdgeStyle;rounded=0;orthogonalLoop=1;jettySize=auto;html=1;exitX=0.25;exitY=1;exitDx=0;exitDy=0;entryX=0.5;entryY=0;entryDx=0;entryDy=0;" parent="1" source="G1QavCdpPOb3-exbz2O6-37" target="G1QavCdpPOb3-exbz2O6-17" edge="1">
          <mxGeometry relative="1" as="geometry" />
        </mxCell>
        <mxCell id="G1QavCdpPOb3-exbz2O6-48" style="edgeStyle=orthogonalEdgeStyle;rounded=0;orthogonalLoop=1;jettySize=auto;html=1;entryX=0.25;entryY=0;entryDx=0;entryDy=0;" parent="1" source="G1QavCdpPOb3-exbz2O6-17" target="G1QavCdpPOb3-exbz2O6-42" edge="1">
          <mxGeometry relative="1" as="geometry">
            <Array as="points">
              <mxPoint x="348" y="690" />
              <mxPoint x="433" y="690" />
            </Array>
          </mxGeometry>
        </mxCell>
        <mxCell id="G1QavCdpPOb3-exbz2O6-49" value="plate #" style="edgeLabel;html=1;align=center;verticalAlign=middle;resizable=0;points=[];" parent="G1QavCdpPOb3-exbz2O6-48" vertex="1" connectable="0">
          <mxGeometry x="0.2016" y="-2" relative="1" as="geometry">
            <mxPoint x="-43" as="offset" />
          </mxGeometry>
        </mxCell>
        <mxCell id="G1QavCdpPOb3-exbz2O6-50" style="edgeStyle=orthogonalEdgeStyle;rounded=0;orthogonalLoop=1;jettySize=auto;html=1;entryX=0.33;entryY=1.035;entryDx=0;entryDy=0;entryPerimeter=0;" parent="1" source="G1QavCdpPOb3-exbz2O6-42" target="G1QavCdpPOb3-exbz2O6-15" edge="1">
          <mxGeometry relative="1" as="geometry">
            <Array as="points">
              <mxPoint x="452" y="770" />
              <mxPoint x="292" y="770" />
              <mxPoint x="292" y="650" />
              <mxPoint x="215" y="650" />
              <mxPoint x="215" y="580" />
            </Array>
            <mxPoint x="215.0250000000001" y="585" as="targetPoint" />
          </mxGeometry>
        </mxCell>
        <mxCell id="3V2a9M4K4vM3brNOxnh2-14" style="edgeStyle=orthogonalEdgeStyle;rounded=0;orthogonalLoop=1;jettySize=auto;html=1;fontFamily=Helvetica;fontSize=12;fontColor=default;" parent="1" source="3V2a9M4K4vM3brNOxnh2-10" target="3V2a9M4K4vM3brNOxnh2-5" edge="1">
          <mxGeometry relative="1" as="geometry">
            <mxPoint x="127" y="510" as="targetPoint" />
            <Array as="points">
              <mxPoint x="613" y="790" />
              <mxPoint x="127" y="790" />
            </Array>
          </mxGeometry>
        </mxCell>
      </root>
    </mxGraphModel>
  </diagram>
  <diagram name="Student App" id="pMt0nUT1m_3gDLqBmJS6">
    <mxGraphModel dx="2082" dy="1089" grid="1" gridSize="10" guides="1" tooltips="1" connect="1" arrows="1" fold="1" page="1" pageScale="1" pageWidth="850" pageHeight="1100" math="0" shadow="0">
      <root>
        <mxCell id="0" />
        <mxCell id="1" parent="0" />
        <mxCell id="dCBf3Mzo_1W2zM9vpQCk-14" value="Application" style="swimlane;whiteSpace=wrap;html=1;" parent="1" vertex="1">
          <mxGeometry x="110" y="80" width="210" height="960" as="geometry" />
        </mxCell>
        <mxCell id="dCBf3Mzo_1W2zM9vpQCk-15" style="edgeStyle=orthogonalEdgeStyle;rounded=0;orthogonalLoop=1;jettySize=auto;html=1;entryX=0;entryY=0.75;entryDx=0;entryDy=0;fontSize=7;" parent="dCBf3Mzo_1W2zM9vpQCk-14" edge="1">
          <mxGeometry relative="1" as="geometry">
            <Array as="points">
              <mxPoint x="247" y="480" />
              <mxPoint x="50" y="480" />
              <mxPoint x="50" y="203" />
            </Array>
            <mxPoint x="153.25" y="202.5" as="targetPoint" />
          </mxGeometry>
        </mxCell>
        <mxCell id="dCBf3Mzo_1W2zM9vpQCk-16" value="show &quot;log in&quot; page" style="rounded=1;whiteSpace=wrap;html=1;fillColor=#FFFFFF;" parent="dCBf3Mzo_1W2zM9vpQCk-14" vertex="1">
          <mxGeometry x="20" y="100" width="95" height="40" as="geometry" />
        </mxCell>
        <mxCell id="dCBf3Mzo_1W2zM9vpQCk-17" value="Send information to the server" style="rounded=1;whiteSpace=wrap;html=1;fillColor=#FFFFFF;" parent="dCBf3Mzo_1W2zM9vpQCk-14" vertex="1">
          <mxGeometry x="30" y="170" width="95" height="40" as="geometry" />
        </mxCell>
        <mxCell id="dCBf3Mzo_1W2zM9vpQCk-18" style="edgeStyle=orthogonalEdgeStyle;rounded=0;orthogonalLoop=1;jettySize=auto;html=1;entryX=0.5;entryY=1;entryDx=0;entryDy=0;" parent="dCBf3Mzo_1W2zM9vpQCk-14" source="dCBf3Mzo_1W2zM9vpQCk-21" target="dCBf3Mzo_1W2zM9vpQCk-23" edge="1">
          <mxGeometry relative="1" as="geometry" />
        </mxCell>
        <mxCell id="dCBf3Mzo_1W2zM9vpQCk-19" value="No" style="edgeLabel;html=1;align=center;verticalAlign=middle;resizable=0;points=[];" parent="dCBf3Mzo_1W2zM9vpQCk-18" vertex="1" connectable="0">
          <mxGeometry x="-0.6527" y="1" relative="1" as="geometry">
            <mxPoint as="offset" />
          </mxGeometry>
        </mxCell>
        <mxCell id="dCBf3Mzo_1W2zM9vpQCk-20" style="edgeStyle=orthogonalEdgeStyle;rounded=0;orthogonalLoop=1;jettySize=auto;html=1;entryX=1;entryY=0.5;entryDx=0;entryDy=0;" parent="dCBf3Mzo_1W2zM9vpQCk-14" source="dCBf3Mzo_1W2zM9vpQCk-21" target="dCBf3Mzo_1W2zM9vpQCk-24" edge="1">
          <mxGeometry relative="1" as="geometry" />
        </mxCell>
        <mxCell id="R95CB6sSoDXFmLs3-d8_-4" value="Yes" style="edgeLabel;html=1;align=center;verticalAlign=middle;resizable=0;points=[];" parent="dCBf3Mzo_1W2zM9vpQCk-20" vertex="1" connectable="0">
          <mxGeometry x="0.216" relative="1" as="geometry">
            <mxPoint x="5" y="15" as="offset" />
          </mxGeometry>
        </mxCell>
        <mxCell id="dCBf3Mzo_1W2zM9vpQCk-21" value="" style="rhombus;whiteSpace=wrap;html=1;fillColor=#FFFFFF;" parent="dCBf3Mzo_1W2zM9vpQCk-14" vertex="1">
          <mxGeometry x="150" y="225" width="40" height="40" as="geometry" />
        </mxCell>
        <mxCell id="dCBf3Mzo_1W2zM9vpQCk-22" value="" style="edgeStyle=orthogonalEdgeStyle;rounded=0;orthogonalLoop=1;jettySize=auto;html=1;" parent="dCBf3Mzo_1W2zM9vpQCk-14" source="dCBf3Mzo_1W2zM9vpQCk-23" target="dCBf3Mzo_1W2zM9vpQCk-16" edge="1">
          <mxGeometry relative="1" as="geometry" />
        </mxCell>
        <mxCell id="dCBf3Mzo_1W2zM9vpQCk-23" value="show error message" style="rounded=1;whiteSpace=wrap;html=1;fillColor=#FFFFFF;" parent="dCBf3Mzo_1W2zM9vpQCk-14" vertex="1">
          <mxGeometry x="135.5" y="105" width="70" height="30" as="geometry" />
        </mxCell>
        <mxCell id="dCBf3Mzo_1W2zM9vpQCk-24" value="show &quot;student main&quot; page" style="rounded=1;whiteSpace=wrap;html=1;fillColor=#FFFFFF;" parent="dCBf3Mzo_1W2zM9vpQCk-14" vertex="1">
          <mxGeometry x="20" y="225" width="80" height="40" as="geometry" />
        </mxCell>
        <mxCell id="dCBf3Mzo_1W2zM9vpQCk-25" value="Show &quot;account information&quot; page" style="rounded=1;whiteSpace=wrap;html=1;fillColor=#FFFFFF;" parent="dCBf3Mzo_1W2zM9vpQCk-14" vertex="1">
          <mxGeometry x="70" y="720" width="90" height="40" as="geometry" />
        </mxCell>
        <mxCell id="dCBf3Mzo_1W2zM9vpQCk-26" value="Request to get all records" style="rounded=1;whiteSpace=wrap;html=1;fillColor=#FFFFFF;" parent="dCBf3Mzo_1W2zM9vpQCk-14" vertex="1">
          <mxGeometry x="20" y="499" width="90" height="45" as="geometry" />
        </mxCell>
        <mxCell id="dCBf3Mzo_1W2zM9vpQCk-27" value="Request to get available parking" style="rounded=1;whiteSpace=wrap;html=1;fillColor=#FFFFFF;" parent="dCBf3Mzo_1W2zM9vpQCk-14" vertex="1">
          <mxGeometry x="15" y="320" width="90" height="40" as="geometry" />
        </mxCell>
        <mxCell id="dCBf3Mzo_1W2zM9vpQCk-28" value="Show available parking" style="rounded=1;whiteSpace=wrap;html=1;fillColor=#FFFFFF;" parent="dCBf3Mzo_1W2zM9vpQCk-14" vertex="1">
          <mxGeometry x="15" y="382.5" width="90" height="45" as="geometry" />
        </mxCell>
        <mxCell id="dCBf3Mzo_1W2zM9vpQCk-29" value="show &quot;student history&quot; page" style="rounded=1;whiteSpace=wrap;html=1;fillColor=#FFFFFF;" parent="dCBf3Mzo_1W2zM9vpQCk-14" vertex="1">
          <mxGeometry x="20" y="570" width="90" height="45" as="geometry" />
        </mxCell>
        <mxCell id="bMd1OUJ7xmaE4e0sp1Q6-8" style="edgeStyle=orthogonalEdgeStyle;rounded=0;orthogonalLoop=1;jettySize=auto;html=1;" parent="dCBf3Mzo_1W2zM9vpQCk-14" source="bMd1OUJ7xmaE4e0sp1Q6-4" edge="1">
          <mxGeometry relative="1" as="geometry">
            <mxPoint x="239.99999999999977" y="670" as="targetPoint" />
          </mxGeometry>
        </mxCell>
        <mxCell id="bMd1OUJ7xmaE4e0sp1Q6-4" value="Request objection" style="rounded=1;whiteSpace=wrap;html=1;fillColor=#FFFFFF;" parent="dCBf3Mzo_1W2zM9vpQCk-14" vertex="1">
          <mxGeometry x="47.5" y="647.5" width="90" height="45" as="geometry" />
        </mxCell>
        <mxCell id="bMd1OUJ7xmaE4e0sp1Q6-28" value="Request to change car information" style="rounded=1;whiteSpace=wrap;html=1;fillColor=#FFFFFF;" parent="dCBf3Mzo_1W2zM9vpQCk-14" vertex="1">
          <mxGeometry x="70" y="860" width="90" height="40" as="geometry" />
        </mxCell>
        <mxCell id="dCBf3Mzo_1W2zM9vpQCk-30" value="BackEnd server" style="swimlane;whiteSpace=wrap;html=1;" parent="1" vertex="1">
          <mxGeometry x="320" y="80" width="150" height="960" as="geometry" />
        </mxCell>
        <mxCell id="dCBf3Mzo_1W2zM9vpQCk-34" value="Validate the acount" style="rounded=1;whiteSpace=wrap;html=1;fillColor=#FFFFFF;" parent="dCBf3Mzo_1W2zM9vpQCk-30" vertex="1">
          <mxGeometry x="20" y="147.5" width="85" height="35" as="geometry" />
        </mxCell>
        <mxCell id="dCBf3Mzo_1W2zM9vpQCk-36" value="Retrieve records" style="rounded=1;whiteSpace=wrap;html=1;fillColor=#FFFFFF;" parent="dCBf3Mzo_1W2zM9vpQCk-30" vertex="1">
          <mxGeometry x="17.5" y="457.5" width="90" height="45" as="geometry" />
        </mxCell>
        <mxCell id="dCBf3Mzo_1W2zM9vpQCk-39" value="Retrieve list of parking" style="rounded=1;whiteSpace=wrap;html=1;fillColor=#FFFFFF;" parent="dCBf3Mzo_1W2zM9vpQCk-30" vertex="1">
          <mxGeometry x="10" y="310" width="90" height="40" as="geometry" />
        </mxCell>
        <mxCell id="bMd1OUJ7xmaE4e0sp1Q6-9" value="Add the objection to the DB" style="rounded=1;whiteSpace=wrap;html=1;fillColor=#FFFFFF;" parent="dCBf3Mzo_1W2zM9vpQCk-30" vertex="1">
          <mxGeometry x="30" y="650" width="90" height="45" as="geometry" />
        </mxCell>
        <mxCell id="bMd1OUJ7xmaE4e0sp1Q6-29" value="Modify car information in the DB" style="rounded=1;whiteSpace=wrap;html=1;fillColor=#FFFFFF;" parent="dCBf3Mzo_1W2zM9vpQCk-30" vertex="1">
          <mxGeometry x="30" y="857.5" width="90" height="45" as="geometry" />
        </mxCell>
        <mxCell id="R95CB6sSoDXFmLs3-d8_-3" value="Is valid?" style="text;html=1;align=center;verticalAlign=middle;resizable=0;points=[];autosize=1;strokeColor=none;fillColor=none;" parent="dCBf3Mzo_1W2zM9vpQCk-30" vertex="1">
          <mxGeometry y="200" width="70" height="30" as="geometry" />
        </mxCell>
        <mxCell id="dCBf3Mzo_1W2zM9vpQCk-40" value="Student" style="swimlane;whiteSpace=wrap;html=1;" parent="1" vertex="1">
          <mxGeometry x="-110" y="80" width="220" height="960" as="geometry" />
        </mxCell>
        <mxCell id="dCBf3Mzo_1W2zM9vpQCk-41" style="edgeStyle=orthogonalEdgeStyle;rounded=0;orthogonalLoop=1;jettySize=auto;html=1;entryX=0.5;entryY=0;entryDx=0;entryDy=0;" parent="dCBf3Mzo_1W2zM9vpQCk-40" source="dCBf3Mzo_1W2zM9vpQCk-43" target="dCBf3Mzo_1W2zM9vpQCk-45" edge="1">
          <mxGeometry relative="1" as="geometry" />
        </mxCell>
        <mxCell id="dCBf3Mzo_1W2zM9vpQCk-42" value="Open the application" style="edgeLabel;html=1;align=center;verticalAlign=middle;resizable=0;points=[];" parent="dCBf3Mzo_1W2zM9vpQCk-41" vertex="1" connectable="0">
          <mxGeometry x="0.3074" relative="1" as="geometry">
            <mxPoint y="-6" as="offset" />
          </mxGeometry>
        </mxCell>
        <mxCell id="dCBf3Mzo_1W2zM9vpQCk-43" value="" style="ellipse;whiteSpace=wrap;html=1;aspect=fixed;fillColor=#000000;" parent="dCBf3Mzo_1W2zM9vpQCk-40" vertex="1">
          <mxGeometry x="120" y="30" width="30" height="30" as="geometry" />
        </mxCell>
        <mxCell id="dCBf3Mzo_1W2zM9vpQCk-45" value="Student login" style="rounded=1;whiteSpace=wrap;html=1;fillColor=#FFFFFF;" parent="dCBf3Mzo_1W2zM9vpQCk-40" vertex="1">
          <mxGeometry x="87.5" y="100" width="95" height="40" as="geometry" />
        </mxCell>
        <mxCell id="dCBf3Mzo_1W2zM9vpQCk-46" value="Enter ID and password" style="rounded=1;whiteSpace=wrap;html=1;fillColor=#FFFFFF;" parent="dCBf3Mzo_1W2zM9vpQCk-40" vertex="1">
          <mxGeometry x="87.5" y="170" width="95" height="40" as="geometry" />
        </mxCell>
        <mxCell id="dCBf3Mzo_1W2zM9vpQCk-49" value="" style="endArrow=classic;html=1;rounded=0;entryX=0;entryY=0.5;entryDx=0;entryDy=0;" parent="dCBf3Mzo_1W2zM9vpQCk-40" target="dCBf3Mzo_1W2zM9vpQCk-27" edge="1">
          <mxGeometry width="50" height="50" relative="1" as="geometry">
            <mxPoint x="100" y="340" as="sourcePoint" />
            <mxPoint x="170" y="330" as="targetPoint" />
          </mxGeometry>
        </mxCell>
        <mxCell id="bMd1OUJ7xmaE4e0sp1Q6-16" value="Available parking" style="edgeLabel;html=1;align=center;verticalAlign=middle;resizable=0;points=[];" parent="dCBf3Mzo_1W2zM9vpQCk-49" vertex="1" connectable="0">
          <mxGeometry x="-0.6927" relative="1" as="geometry">
            <mxPoint x="92" y="-10" as="offset" />
          </mxGeometry>
        </mxCell>
        <mxCell id="dCBf3Mzo_1W2zM9vpQCk-50" value="" style="endArrow=classic;html=1;rounded=0;entryX=0;entryY=0.5;entryDx=0;entryDy=0;" parent="dCBf3Mzo_1W2zM9vpQCk-40" target="dCBf3Mzo_1W2zM9vpQCk-26" edge="1">
          <mxGeometry width="50" height="50" relative="1" as="geometry">
            <mxPoint x="100" y="520" as="sourcePoint" />
            <mxPoint x="200" y="420" as="targetPoint" />
          </mxGeometry>
        </mxCell>
        <mxCell id="bMd1OUJ7xmaE4e0sp1Q6-17" value="Violation records" style="edgeLabel;html=1;align=center;verticalAlign=middle;resizable=0;points=[];" parent="dCBf3Mzo_1W2zM9vpQCk-50" vertex="1" connectable="0">
          <mxGeometry x="-0.4692" relative="1" as="geometry">
            <mxPoint x="33" as="offset" />
          </mxGeometry>
        </mxCell>
        <mxCell id="dCBf3Mzo_1W2zM9vpQCk-51" value="" style="endArrow=classic;html=1;rounded=0;" parent="dCBf3Mzo_1W2zM9vpQCk-40" edge="1">
          <mxGeometry width="50" height="50" relative="1" as="geometry">
            <mxPoint x="97" y="740" as="sourcePoint" />
            <mxPoint x="97.3" y="820" as="targetPoint" />
          </mxGeometry>
        </mxCell>
        <mxCell id="bMd1OUJ7xmaE4e0sp1Q6-13" value="Exit" style="edgeLabel;html=1;align=center;verticalAlign=middle;resizable=0;points=[];" parent="dCBf3Mzo_1W2zM9vpQCk-51" vertex="1" connectable="0">
          <mxGeometry x="0.1928" relative="1" as="geometry">
            <mxPoint as="offset" />
          </mxGeometry>
        </mxCell>
        <mxCell id="dCBf3Mzo_1W2zM9vpQCk-52" value="" style="ellipse;html=1;shape=endState;fillColor=#000000;strokeColor=#ff0000;strokeWidth=2;fontSize=8;" parent="dCBf3Mzo_1W2zM9vpQCk-40" vertex="1">
          <mxGeometry x="82.5" y="820" width="30" height="30" as="geometry" />
        </mxCell>
        <mxCell id="dCBf3Mzo_1W2zM9vpQCk-53" value="" style="rhombus;whiteSpace=wrap;html=1;" parent="dCBf3Mzo_1W2zM9vpQCk-40" vertex="1">
          <mxGeometry x="100" y="450" width="40" height="40" as="geometry" />
        </mxCell>
        <mxCell id="dCBf3Mzo_1W2zM9vpQCk-54" value="Return to&lt;br&gt;&amp;nbsp;home page?" style="text;html=1;align=center;verticalAlign=middle;resizable=0;points=[];autosize=1;strokeColor=none;fillColor=none;" parent="dCBf3Mzo_1W2zM9vpQCk-40" vertex="1">
          <mxGeometry x="92.5" y="410" width="90" height="40" as="geometry" />
        </mxCell>
        <mxCell id="dCBf3Mzo_1W2zM9vpQCk-55" value="" style="rhombus;whiteSpace=wrap;html=1;" parent="dCBf3Mzo_1W2zM9vpQCk-40" vertex="1">
          <mxGeometry x="175" y="652.5" width="40" height="40" as="geometry" />
        </mxCell>
        <mxCell id="dCBf3Mzo_1W2zM9vpQCk-56" value="Object?" style="text;html=1;align=center;verticalAlign=middle;resizable=0;points=[];autosize=1;strokeColor=none;fillColor=none;" parent="dCBf3Mzo_1W2zM9vpQCk-40" vertex="1">
          <mxGeometry x="140" y="630" width="60" height="30" as="geometry" />
        </mxCell>
        <mxCell id="bMd1OUJ7xmaE4e0sp1Q6-25" style="edgeStyle=orthogonalEdgeStyle;rounded=0;orthogonalLoop=1;jettySize=auto;html=1;fontSize=10;entryX=0.5;entryY=0;entryDx=0;entryDy=0;" parent="dCBf3Mzo_1W2zM9vpQCk-40" source="bMd1OUJ7xmaE4e0sp1Q6-20" target="bMd1OUJ7xmaE4e0sp1Q6-26" edge="1">
          <mxGeometry relative="1" as="geometry">
            <mxPoint x="195" y="850" as="targetPoint" />
          </mxGeometry>
        </mxCell>
        <mxCell id="bMd1OUJ7xmaE4e0sp1Q6-33" value="Yes" style="edgeLabel;html=1;align=center;verticalAlign=middle;resizable=0;points=[];fontSize=10;" parent="bMd1OUJ7xmaE4e0sp1Q6-25" vertex="1" connectable="0">
          <mxGeometry x="-0.3242" y="-1" relative="1" as="geometry">
            <mxPoint x="-34" y="-4" as="offset" />
          </mxGeometry>
        </mxCell>
        <mxCell id="bMd1OUJ7xmaE4e0sp1Q6-20" value="" style="rhombus;whiteSpace=wrap;html=1;fillColor=#FFFFFF;" parent="dCBf3Mzo_1W2zM9vpQCk-40" vertex="1">
          <mxGeometry x="170" y="775" width="50" height="50" as="geometry" />
        </mxCell>
        <mxCell id="bMd1OUJ7xmaE4e0sp1Q6-22" value="modify registered&amp;nbsp;&lt;br style=&quot;font-size: 10px;&quot;&gt;cars" style="text;html=1;align=center;verticalAlign=middle;resizable=0;points=[];autosize=1;strokeColor=none;fillColor=none;fontSize=10;" parent="dCBf3Mzo_1W2zM9vpQCk-40" vertex="1">
          <mxGeometry x="120" y="750" width="100" height="40" as="geometry" />
        </mxCell>
        <mxCell id="bMd1OUJ7xmaE4e0sp1Q6-26" value="Enter the new information" style="rounded=1;whiteSpace=wrap;html=1;fillColor=#FFFFFF;" parent="dCBf3Mzo_1W2zM9vpQCk-40" vertex="1">
          <mxGeometry x="150" y="860" width="90" height="40" as="geometry" />
        </mxCell>
        <mxCell id="MEb1H67H5zdP5ph4wHpc-1" value="choose&lt;br style=&quot;border-color: var(--border-color);&quot;&gt;&lt;span style=&quot;&quot;&gt;&amp;nbsp;page&lt;/span&gt;" style="rounded=1;whiteSpace=wrap;html=1;strokeWidth=1;" parent="dCBf3Mzo_1W2zM9vpQCk-40" vertex="1">
          <mxGeometry x="57.5" y="228" width="80" height="35" as="geometry" />
        </mxCell>
        <mxCell id="dCBf3Mzo_1W2zM9vpQCk-57" style="edgeStyle=orthogonalEdgeStyle;rounded=0;orthogonalLoop=1;jettySize=auto;html=1;entryX=0.511;entryY=-0.06;entryDx=0;entryDy=0;entryPerimeter=0;" parent="1" source="dCBf3Mzo_1W2zM9vpQCk-16" target="dCBf3Mzo_1W2zM9vpQCk-46" edge="1">
          <mxGeometry relative="1" as="geometry">
            <Array as="points">
              <mxPoint x="188" y="230" />
              <mxPoint x="26" y="230" />
            </Array>
          </mxGeometry>
        </mxCell>
        <mxCell id="dCBf3Mzo_1W2zM9vpQCk-58" style="edgeStyle=orthogonalEdgeStyle;rounded=0;orthogonalLoop=1;jettySize=auto;html=1;entryX=0;entryY=0.5;entryDx=0;entryDy=0;" parent="1" source="dCBf3Mzo_1W2zM9vpQCk-46" target="dCBf3Mzo_1W2zM9vpQCk-17" edge="1">
          <mxGeometry relative="1" as="geometry" />
        </mxCell>
        <mxCell id="dCBf3Mzo_1W2zM9vpQCk-59" style="edgeStyle=orthogonalEdgeStyle;rounded=0;orthogonalLoop=1;jettySize=auto;html=1;entryX=0;entryY=0.5;entryDx=0;entryDy=0;" parent="1" source="dCBf3Mzo_1W2zM9vpQCk-17" target="dCBf3Mzo_1W2zM9vpQCk-34" edge="1">
          <mxGeometry relative="1" as="geometry" />
        </mxCell>
        <mxCell id="dCBf3Mzo_1W2zM9vpQCk-62" style="edgeStyle=orthogonalEdgeStyle;rounded=0;orthogonalLoop=1;jettySize=auto;html=1;" parent="1" source="dCBf3Mzo_1W2zM9vpQCk-24" target="MEb1H67H5zdP5ph4wHpc-1" edge="1">
          <mxGeometry relative="1" as="geometry">
            <mxPoint x="40" y="330" as="targetPoint" />
          </mxGeometry>
        </mxCell>
        <mxCell id="dCBf3Mzo_1W2zM9vpQCk-63" style="edgeStyle=orthogonalEdgeStyle;rounded=0;orthogonalLoop=1;jettySize=auto;html=1;entryX=0;entryY=0.5;entryDx=0;entryDy=0;" parent="1" source="MEb1H67H5zdP5ph4wHpc-1" target="dCBf3Mzo_1W2zM9vpQCk-25" edge="1">
          <mxGeometry relative="1" as="geometry">
            <Array as="points">
              <mxPoint x="-12" y="820" />
            </Array>
            <mxPoint x="-12.5" y="347.5" as="sourcePoint" />
          </mxGeometry>
        </mxCell>
        <mxCell id="bMd1OUJ7xmaE4e0sp1Q6-18" value="Account settings" style="edgeLabel;html=1;align=center;verticalAlign=middle;resizable=0;points=[];" parent="dCBf3Mzo_1W2zM9vpQCk-63" vertex="1" connectable="0">
          <mxGeometry x="0.4465" y="-1" relative="1" as="geometry">
            <mxPoint x="64" y="-11" as="offset" />
          </mxGeometry>
        </mxCell>
        <mxCell id="dCBf3Mzo_1W2zM9vpQCk-68" value="" style="endArrow=classic;html=1;rounded=0;entryX=0.5;entryY=1;entryDx=0;entryDy=0;exitX=0.5;exitY=0;exitDx=0;exitDy=0;" parent="1" source="dCBf3Mzo_1W2zM9vpQCk-53" target="dCBf3Mzo_1W2zM9vpQCk-24" edge="1">
          <mxGeometry width="50" height="50" relative="1" as="geometry">
            <mxPoint y="440" as="sourcePoint" />
            <mxPoint x="50" y="390" as="targetPoint" />
            <Array as="points">
              <mxPoint x="10" y="360" />
              <mxPoint x="170" y="360" />
            </Array>
          </mxGeometry>
        </mxCell>
        <mxCell id="dCBf3Mzo_1W2zM9vpQCk-69" style="edgeStyle=orthogonalEdgeStyle;rounded=0;orthogonalLoop=1;jettySize=auto;html=1;entryX=1;entryY=0.5;entryDx=0;entryDy=0;" parent="1" source="dCBf3Mzo_1W2zM9vpQCk-36" target="dCBf3Mzo_1W2zM9vpQCk-29" edge="1">
          <mxGeometry relative="1" as="geometry">
            <Array as="points">
              <mxPoint x="383" y="673" />
              <mxPoint x="279" y="673" />
            </Array>
          </mxGeometry>
        </mxCell>
        <mxCell id="dCBf3Mzo_1W2zM9vpQCk-70" value="Tx: violation records" style="edgeLabel;html=1;align=center;verticalAlign=middle;resizable=0;points=[];" parent="dCBf3Mzo_1W2zM9vpQCk-69" vertex="1" connectable="0">
          <mxGeometry x="0.0401" relative="1" as="geometry">
            <mxPoint as="offset" />
          </mxGeometry>
        </mxCell>
        <mxCell id="dCBf3Mzo_1W2zM9vpQCk-71" style="edgeStyle=orthogonalEdgeStyle;rounded=0;orthogonalLoop=1;jettySize=auto;html=1;entryX=0;entryY=0.5;entryDx=0;entryDy=0;" parent="1" source="dCBf3Mzo_1W2zM9vpQCk-26" target="dCBf3Mzo_1W2zM9vpQCk-36" edge="1">
          <mxGeometry relative="1" as="geometry" />
        </mxCell>
        <mxCell id="dCBf3Mzo_1W2zM9vpQCk-72" value="Tx: student ID" style="edgeLabel;html=1;align=center;verticalAlign=middle;resizable=0;points=[];" parent="dCBf3Mzo_1W2zM9vpQCk-71" vertex="1" connectable="0">
          <mxGeometry x="0.1624" y="2" relative="1" as="geometry">
            <mxPoint as="offset" />
          </mxGeometry>
        </mxCell>
        <mxCell id="dCBf3Mzo_1W2zM9vpQCk-73" style="edgeStyle=orthogonalEdgeStyle;rounded=0;orthogonalLoop=1;jettySize=auto;html=1;entryX=0;entryY=0.5;entryDx=0;entryDy=0;" parent="1" source="dCBf3Mzo_1W2zM9vpQCk-27" target="dCBf3Mzo_1W2zM9vpQCk-39" edge="1">
          <mxGeometry relative="1" as="geometry" />
        </mxCell>
        <mxCell id="dCBf3Mzo_1W2zM9vpQCk-74" style="edgeStyle=orthogonalEdgeStyle;rounded=0;orthogonalLoop=1;jettySize=auto;html=1;entryX=1;entryY=0.5;entryDx=0;entryDy=0;" parent="1" source="dCBf3Mzo_1W2zM9vpQCk-39" target="dCBf3Mzo_1W2zM9vpQCk-28" edge="1">
          <mxGeometry relative="1" as="geometry">
            <Array as="points">
              <mxPoint x="375" y="485" />
            </Array>
          </mxGeometry>
        </mxCell>
        <mxCell id="dCBf3Mzo_1W2zM9vpQCk-75" value="Tx: empty parking" style="edgeLabel;html=1;align=center;verticalAlign=middle;resizable=0;points=[];" parent="dCBf3Mzo_1W2zM9vpQCk-74" vertex="1" connectable="0">
          <mxGeometry x="0.1866" relative="1" as="geometry">
            <mxPoint y="-1" as="offset" />
          </mxGeometry>
        </mxCell>
        <mxCell id="dCBf3Mzo_1W2zM9vpQCk-78" value="" style="endArrow=classic;startArrow=classic;html=1;rounded=0;entryX=0;entryY=0.25;entryDx=0;entryDy=0;exitX=0.5;exitY=1;exitDx=0;exitDy=0;" parent="1" source="dCBf3Mzo_1W2zM9vpQCk-53" target="dCBf3Mzo_1W2zM9vpQCk-29" edge="1">
          <mxGeometry width="50" height="50" relative="1" as="geometry">
            <mxPoint x="10" y="650" as="sourcePoint" />
            <mxPoint x="60" y="600" as="targetPoint" />
            <Array as="points">
              <mxPoint x="10" y="660" />
            </Array>
          </mxGeometry>
        </mxCell>
        <mxCell id="dCBf3Mzo_1W2zM9vpQCk-79" value="No" style="edgeLabel;html=1;align=center;verticalAlign=middle;resizable=0;points=[];" parent="dCBf3Mzo_1W2zM9vpQCk-78" vertex="1" connectable="0">
          <mxGeometry x="0.1877" y="-2" relative="1" as="geometry">
            <mxPoint as="offset" />
          </mxGeometry>
        </mxCell>
        <mxCell id="bMd1OUJ7xmaE4e0sp1Q6-5" style="edgeStyle=orthogonalEdgeStyle;rounded=0;orthogonalLoop=1;jettySize=auto;html=1;entryX=0;entryY=0.5;entryDx=0;entryDy=0;" parent="1" source="dCBf3Mzo_1W2zM9vpQCk-55" target="bMd1OUJ7xmaE4e0sp1Q6-4" edge="1">
          <mxGeometry relative="1" as="geometry" />
        </mxCell>
        <mxCell id="R95CB6sSoDXFmLs3-d8_-11" value="Yes" style="edgeLabel;html=1;align=center;verticalAlign=middle;resizable=0;points=[];" parent="bMd1OUJ7xmaE4e0sp1Q6-5" vertex="1" connectable="0">
          <mxGeometry x="-0.1304" y="-1" relative="1" as="geometry">
            <mxPoint as="offset" />
          </mxGeometry>
        </mxCell>
        <mxCell id="bMd1OUJ7xmaE4e0sp1Q6-12" style="edgeStyle=orthogonalEdgeStyle;rounded=0;orthogonalLoop=1;jettySize=auto;html=1;entryX=0.5;entryY=1;entryDx=0;entryDy=0;" parent="1" source="bMd1OUJ7xmaE4e0sp1Q6-9" target="dCBf3Mzo_1W2zM9vpQCk-29" edge="1">
          <mxGeometry relative="1" as="geometry">
            <Array as="points">
              <mxPoint x="395" y="710" />
              <mxPoint x="175" y="710" />
            </Array>
          </mxGeometry>
        </mxCell>
        <mxCell id="bMd1OUJ7xmaE4e0sp1Q6-27" style="edgeStyle=orthogonalEdgeStyle;rounded=0;orthogonalLoop=1;jettySize=auto;html=1;fontSize=10;entryX=0;entryY=0.5;entryDx=0;entryDy=0;" parent="1" source="bMd1OUJ7xmaE4e0sp1Q6-26" target="bMd1OUJ7xmaE4e0sp1Q6-28" edge="1">
          <mxGeometry relative="1" as="geometry">
            <mxPoint x="170" y="960" as="targetPoint" />
          </mxGeometry>
        </mxCell>
        <mxCell id="bMd1OUJ7xmaE4e0sp1Q6-30" style="edgeStyle=orthogonalEdgeStyle;rounded=0;orthogonalLoop=1;jettySize=auto;html=1;entryX=0;entryY=0.5;entryDx=0;entryDy=0;fontSize=10;" parent="1" source="bMd1OUJ7xmaE4e0sp1Q6-28" target="bMd1OUJ7xmaE4e0sp1Q6-29" edge="1">
          <mxGeometry relative="1" as="geometry" />
        </mxCell>
        <mxCell id="R95CB6sSoDXFmLs3-d8_-1" style="edgeStyle=orthogonalEdgeStyle;rounded=0;orthogonalLoop=1;jettySize=auto;html=1;entryX=1;entryY=0.5;entryDx=0;entryDy=0;" parent="1" source="dCBf3Mzo_1W2zM9vpQCk-34" target="dCBf3Mzo_1W2zM9vpQCk-21" edge="1">
          <mxGeometry relative="1" as="geometry">
            <Array as="points">
              <mxPoint x="390" y="325" />
            </Array>
          </mxGeometry>
        </mxCell>
        <mxCell id="R95CB6sSoDXFmLs3-d8_-5" style="edgeStyle=orthogonalEdgeStyle;rounded=0;orthogonalLoop=1;jettySize=auto;html=1;entryX=1;entryY=0.5;entryDx=0;entryDy=0;" parent="1" source="dCBf3Mzo_1W2zM9vpQCk-28" target="dCBf3Mzo_1W2zM9vpQCk-53" edge="1">
          <mxGeometry relative="1" as="geometry" />
        </mxCell>
        <mxCell id="R95CB6sSoDXFmLs3-d8_-6" style="edgeStyle=orthogonalEdgeStyle;rounded=0;orthogonalLoop=1;jettySize=auto;html=1;exitX=1;exitY=1;exitDx=0;exitDy=0;entryX=0.5;entryY=1;entryDx=0;entryDy=0;" parent="1" source="dCBf3Mzo_1W2zM9vpQCk-53" target="dCBf3Mzo_1W2zM9vpQCk-28" edge="1">
          <mxGeometry relative="1" as="geometry" />
        </mxCell>
        <mxCell id="R95CB6sSoDXFmLs3-d8_-7" value="No" style="edgeLabel;html=1;align=center;verticalAlign=middle;resizable=0;points=[];" parent="R95CB6sSoDXFmLs3-d8_-6" vertex="1" connectable="0">
          <mxGeometry x="0.6329" y="-1" relative="1" as="geometry">
            <mxPoint as="offset" />
          </mxGeometry>
        </mxCell>
        <mxCell id="R95CB6sSoDXFmLs3-d8_-8" style="edgeStyle=orthogonalEdgeStyle;rounded=0;orthogonalLoop=1;jettySize=auto;html=1;exitX=0;exitY=0.75;exitDx=0;exitDy=0;entryX=0.5;entryY=0;entryDx=0;entryDy=0;" parent="1" source="dCBf3Mzo_1W2zM9vpQCk-29" target="dCBf3Mzo_1W2zM9vpQCk-55" edge="1">
          <mxGeometry relative="1" as="geometry" />
        </mxCell>
        <mxCell id="R95CB6sSoDXFmLs3-d8_-9" style="edgeStyle=orthogonalEdgeStyle;rounded=0;orthogonalLoop=1;jettySize=auto;html=1;entryX=0;entryY=0.5;entryDx=0;entryDy=0;" parent="1" source="dCBf3Mzo_1W2zM9vpQCk-55" target="dCBf3Mzo_1W2zM9vpQCk-29" edge="1">
          <mxGeometry relative="1" as="geometry">
            <mxPoint x="60" y="750" as="sourcePoint" />
            <Array as="points">
              <mxPoint x="40" y="750" />
              <mxPoint x="40" y="673" />
            </Array>
          </mxGeometry>
        </mxCell>
        <mxCell id="R95CB6sSoDXFmLs3-d8_-10" value="No" style="edgeLabel;html=1;align=center;verticalAlign=middle;resizable=0;points=[];" parent="R95CB6sSoDXFmLs3-d8_-9" vertex="1" connectable="0">
          <mxGeometry x="-0.1716" y="2" relative="1" as="geometry">
            <mxPoint as="offset" />
          </mxGeometry>
        </mxCell>
        <mxCell id="dCBf3Mzo_1W2zM9vpQCk-44" style="edgeStyle=orthogonalEdgeStyle;rounded=0;orthogonalLoop=1;jettySize=auto;html=1;" parent="1" source="dCBf3Mzo_1W2zM9vpQCk-45" target="dCBf3Mzo_1W2zM9vpQCk-16" edge="1">
          <mxGeometry relative="1" as="geometry">
            <mxPoint x="180" y="200" as="targetPoint" />
          </mxGeometry>
        </mxCell>
        <mxCell id="R95CB6sSoDXFmLs3-d8_-12" style="edgeStyle=orthogonalEdgeStyle;rounded=0;orthogonalLoop=1;jettySize=auto;html=1;entryX=1;entryY=0.5;entryDx=0;entryDy=0;" parent="1" source="bMd1OUJ7xmaE4e0sp1Q6-29" target="dCBf3Mzo_1W2zM9vpQCk-25" edge="1">
          <mxGeometry relative="1" as="geometry">
            <Array as="points">
              <mxPoint x="390" y="820" />
            </Array>
          </mxGeometry>
        </mxCell>
        <mxCell id="R95CB6sSoDXFmLs3-d8_-13" style="edgeStyle=orthogonalEdgeStyle;rounded=0;orthogonalLoop=1;jettySize=auto;html=1;entryX=1;entryY=0.5;entryDx=0;entryDy=0;" parent="1" source="dCBf3Mzo_1W2zM9vpQCk-25" target="bMd1OUJ7xmaE4e0sp1Q6-20" edge="1">
          <mxGeometry relative="1" as="geometry">
            <Array as="points">
              <mxPoint x="220" y="880" />
            </Array>
          </mxGeometry>
        </mxCell>
        <mxCell id="R95CB6sSoDXFmLs3-d8_-14" style="edgeStyle=orthogonalEdgeStyle;rounded=0;orthogonalLoop=1;jettySize=auto;html=1;exitX=1;exitY=1;exitDx=0;exitDy=0;entryX=0.75;entryY=1;entryDx=0;entryDy=0;" parent="1" source="bMd1OUJ7xmaE4e0sp1Q6-20" target="dCBf3Mzo_1W2zM9vpQCk-25" edge="1">
          <mxGeometry relative="1" as="geometry" />
        </mxCell>
        <mxCell id="R95CB6sSoDXFmLs3-d8_-15" value="No" style="edgeLabel;html=1;align=center;verticalAlign=middle;resizable=0;points=[];" parent="R95CB6sSoDXFmLs3-d8_-14" vertex="1" connectable="0">
          <mxGeometry x="0.6761" y="-1" relative="1" as="geometry">
            <mxPoint as="offset" />
          </mxGeometry>
        </mxCell>
      </root>
    </mxGraphModel>
  </diagram>
  <diagram name="Administration application" id="1j0Tu40OtDlEBZd1sENL">
    <mxGraphModel dx="2082" dy="1146" grid="1" gridSize="10" guides="1" tooltips="1" connect="1" arrows="1" fold="1" page="1" pageScale="1" pageWidth="850" pageHeight="1100" math="0" shadow="0">
      <root>
        <mxCell id="0" />
        <mxCell id="1" parent="0" />
        <mxCell id="AE6Z6dmu06fyvwp963Fg-1" value="Application" style="swimlane;whiteSpace=wrap;html=1;" parent="1" vertex="1">
          <mxGeometry x="110" y="80" width="210" height="1170" as="geometry" />
        </mxCell>
        <mxCell id="AE6Z6dmu06fyvwp963Fg-2" style="edgeStyle=orthogonalEdgeStyle;rounded=0;orthogonalLoop=1;jettySize=auto;html=1;entryX=0;entryY=0.75;entryDx=0;entryDy=0;fontSize=7;" parent="AE6Z6dmu06fyvwp963Fg-1" edge="1">
          <mxGeometry relative="1" as="geometry">
            <Array as="points">
              <mxPoint x="247" y="480" />
              <mxPoint x="50" y="480" />
              <mxPoint x="50" y="203" />
            </Array>
            <mxPoint x="153.25" y="202.5" as="targetPoint" />
          </mxGeometry>
        </mxCell>
        <mxCell id="AE6Z6dmu06fyvwp963Fg-3" value="show &quot;log in&quot; page" style="rounded=1;whiteSpace=wrap;html=1;fillColor=#FFFFFF;" parent="AE6Z6dmu06fyvwp963Fg-1" vertex="1">
          <mxGeometry x="20" y="100" width="95" height="40" as="geometry" />
        </mxCell>
        <mxCell id="AE6Z6dmu06fyvwp963Fg-4" value="Send information to the server" style="rounded=1;whiteSpace=wrap;html=1;fillColor=#FFFFFF;" parent="AE6Z6dmu06fyvwp963Fg-1" vertex="1">
          <mxGeometry x="30" y="170" width="95" height="40" as="geometry" />
        </mxCell>
        <mxCell id="AE6Z6dmu06fyvwp963Fg-5" style="edgeStyle=orthogonalEdgeStyle;rounded=0;orthogonalLoop=1;jettySize=auto;html=1;entryX=0.5;entryY=1;entryDx=0;entryDy=0;" parent="AE6Z6dmu06fyvwp963Fg-1" source="AE6Z6dmu06fyvwp963Fg-8" target="AE6Z6dmu06fyvwp963Fg-10" edge="1">
          <mxGeometry relative="1" as="geometry" />
        </mxCell>
        <mxCell id="AE6Z6dmu06fyvwp963Fg-6" value="No" style="edgeLabel;html=1;align=center;verticalAlign=middle;resizable=0;points=[];" parent="AE6Z6dmu06fyvwp963Fg-5" vertex="1" connectable="0">
          <mxGeometry x="-0.6527" y="1" relative="1" as="geometry">
            <mxPoint as="offset" />
          </mxGeometry>
        </mxCell>
        <mxCell id="AE6Z6dmu06fyvwp963Fg-7" style="edgeStyle=orthogonalEdgeStyle;rounded=0;orthogonalLoop=1;jettySize=auto;html=1;entryX=1;entryY=0.5;entryDx=0;entryDy=0;" parent="AE6Z6dmu06fyvwp963Fg-1" source="AE6Z6dmu06fyvwp963Fg-8" target="AE6Z6dmu06fyvwp963Fg-11" edge="1">
          <mxGeometry relative="1" as="geometry" />
        </mxCell>
        <mxCell id="nONlLezgtsTq2EoqS3n5-3" value="Yes" style="edgeLabel;html=1;align=center;verticalAlign=middle;resizable=0;points=[];" parent="AE6Z6dmu06fyvwp963Fg-7" vertex="1" connectable="0">
          <mxGeometry x="-0.1877" relative="1" as="geometry">
            <mxPoint y="15" as="offset" />
          </mxGeometry>
        </mxCell>
        <mxCell id="AE6Z6dmu06fyvwp963Fg-8" value="" style="rhombus;whiteSpace=wrap;html=1;fillColor=#FFFFFF;" parent="AE6Z6dmu06fyvwp963Fg-1" vertex="1">
          <mxGeometry x="150" y="220" width="45" height="50" as="geometry" />
        </mxCell>
        <mxCell id="AE6Z6dmu06fyvwp963Fg-9" value="" style="edgeStyle=orthogonalEdgeStyle;rounded=0;orthogonalLoop=1;jettySize=auto;html=1;" parent="AE6Z6dmu06fyvwp963Fg-1" source="AE6Z6dmu06fyvwp963Fg-10" target="AE6Z6dmu06fyvwp963Fg-3" edge="1">
          <mxGeometry relative="1" as="geometry" />
        </mxCell>
        <mxCell id="AE6Z6dmu06fyvwp963Fg-10" value="show error message" style="rounded=1;whiteSpace=wrap;html=1;fillColor=#FFFFFF;" parent="AE6Z6dmu06fyvwp963Fg-1" vertex="1">
          <mxGeometry x="137.5" y="105" width="70" height="30" as="geometry" />
        </mxCell>
        <mxCell id="AE6Z6dmu06fyvwp963Fg-11" value="show &quot;administration&quot; page" style="rounded=1;whiteSpace=wrap;html=1;fillColor=#FFFFFF;" parent="AE6Z6dmu06fyvwp963Fg-1" vertex="1">
          <mxGeometry x="20" y="225" width="80" height="40" as="geometry" />
        </mxCell>
        <mxCell id="AE6Z6dmu06fyvwp963Fg-12" value="Req to get the objections" style="rounded=1;whiteSpace=wrap;html=1;fillColor=#FFFFFF;" parent="AE6Z6dmu06fyvwp963Fg-1" vertex="1">
          <mxGeometry x="31.5" y="812.5" width="90" height="40" as="geometry" />
        </mxCell>
        <mxCell id="AE6Z6dmu06fyvwp963Fg-13" value="Show &quot;record inquiry&quot; page" style="rounded=1;whiteSpace=wrap;html=1;fillColor=#FFFFFF;" parent="AE6Z6dmu06fyvwp963Fg-1" vertex="1">
          <mxGeometry x="10" y="330" width="90" height="45" as="geometry" />
        </mxCell>
        <mxCell id="I_-6ljonTevBs9wdl1Ea-3" style="edgeStyle=orthogonalEdgeStyle;rounded=0;orthogonalLoop=1;jettySize=auto;html=1;entryX=1;entryY=0.5;entryDx=0;entryDy=0;fontSize=11;" parent="AE6Z6dmu06fyvwp963Fg-1" source="AE6Z6dmu06fyvwp963Fg-16" target="AE6Z6dmu06fyvwp963Fg-13" edge="1">
          <mxGeometry relative="1" as="geometry">
            <Array as="points">
              <mxPoint x="65" y="520" />
              <mxPoint x="120" y="520" />
              <mxPoint x="120" y="353" />
            </Array>
          </mxGeometry>
        </mxCell>
        <mxCell id="AE6Z6dmu06fyvwp963Fg-16" value="Display the records" style="rounded=1;whiteSpace=wrap;html=1;fillColor=#FFFFFF;" parent="AE6Z6dmu06fyvwp963Fg-1" vertex="1">
          <mxGeometry x="20" y="540" width="90" height="45" as="geometry" />
        </mxCell>
        <mxCell id="I_-6ljonTevBs9wdl1Ea-1" value="Request to get all records" style="rounded=1;whiteSpace=wrap;html=1;fillColor=#FFFFFF;" parent="AE6Z6dmu06fyvwp963Fg-1" vertex="1">
          <mxGeometry x="15" y="448" width="90" height="45" as="geometry" />
        </mxCell>
        <mxCell id="I_-6ljonTevBs9wdl1Ea-8" value="Show &quot;file a violation&quot; page" style="rounded=1;whiteSpace=wrap;html=1;fillColor=#FFFFFF;" parent="AE6Z6dmu06fyvwp963Fg-1" vertex="1">
          <mxGeometry x="10" y="640" width="90" height="45" as="geometry" />
        </mxCell>
        <mxCell id="I_-6ljonTevBs9wdl1Ea-14" value="Request to add violation" style="rounded=1;whiteSpace=wrap;html=1;fillColor=#FFFFFF;" parent="AE6Z6dmu06fyvwp963Fg-1" vertex="1">
          <mxGeometry x="40" y="720" width="90" height="45" as="geometry" />
        </mxCell>
        <mxCell id="YCdxMDmoyfIlLzANXsG_-6" style="edgeStyle=orthogonalEdgeStyle;rounded=0;orthogonalLoop=1;jettySize=auto;html=1;entryX=0.5;entryY=1;entryDx=0;entryDy=0;fontFamily=Helvetica;fontSize=12;fontColor=default;" parent="AE6Z6dmu06fyvwp963Fg-1" source="YCdxMDmoyfIlLzANXsG_-2" target="AE6Z6dmu06fyvwp963Fg-11" edge="1">
          <mxGeometry relative="1" as="geometry">
            <Array as="points">
              <mxPoint x="160" y="290" />
              <mxPoint x="60" y="290" />
            </Array>
          </mxGeometry>
        </mxCell>
        <mxCell id="YCdxMDmoyfIlLzANXsG_-2" value="Display error message" style="rounded=1;whiteSpace=wrap;html=1;fillColor=#FFFFFF;" parent="AE6Z6dmu06fyvwp963Fg-1" vertex="1">
          <mxGeometry x="115" y="630" width="85" height="45" as="geometry" />
        </mxCell>
        <mxCell id="GZaBHvIjXxec4Wt9Xm2--1" value="Show &quot;Objection list&quot; page" style="rounded=1;whiteSpace=wrap;html=1;fillColor=#FFFFFF;" parent="AE6Z6dmu06fyvwp963Fg-1" vertex="1">
          <mxGeometry x="26.5" y="879.5" width="90" height="45" as="geometry" />
        </mxCell>
        <mxCell id="GZaBHvIjXxec4Wt9Xm2--9" value="Show objection details" style="rounded=1;whiteSpace=wrap;html=1;fillColor=#FFFFFF;" parent="AE6Z6dmu06fyvwp963Fg-1" vertex="1">
          <mxGeometry x="21.5" y="950" width="90" height="45" as="geometry" />
        </mxCell>
        <mxCell id="GZaBHvIjXxec4Wt9Xm2--16" value="Reject&amp;nbsp;&amp;nbsp;objection req" style="rounded=1;whiteSpace=wrap;html=1;fillColor=#FFFFFF;" parent="AE6Z6dmu06fyvwp963Fg-1" vertex="1">
          <mxGeometry x="30" y="1020" width="90" height="45" as="geometry" />
        </mxCell>
        <mxCell id="GZaBHvIjXxec4Wt9Xm2--17" value="Accept&amp;nbsp;objection req" style="rounded=1;whiteSpace=wrap;html=1;fillColor=#FFFFFF;" parent="AE6Z6dmu06fyvwp963Fg-1" vertex="1">
          <mxGeometry x="26.5" y="1090" width="90" height="45" as="geometry" />
        </mxCell>
        <mxCell id="AE6Z6dmu06fyvwp963Fg-20" value="BackEnd server" style="swimlane;whiteSpace=wrap;html=1;" parent="1" vertex="1">
          <mxGeometry x="320" y="80" width="150" height="1170" as="geometry" />
        </mxCell>
        <mxCell id="AE6Z6dmu06fyvwp963Fg-24" value="Validate the acount" style="rounded=1;whiteSpace=wrap;html=1;fillColor=#FFFFFF;" parent="AE6Z6dmu06fyvwp963Fg-20" vertex="1">
          <mxGeometry x="19" y="147.5" width="85" height="35" as="geometry" />
        </mxCell>
        <mxCell id="AE6Z6dmu06fyvwp963Fg-26" value="Retrieve records" style="rounded=1;whiteSpace=wrap;html=1;fillColor=#FFFFFF;" parent="AE6Z6dmu06fyvwp963Fg-20" vertex="1">
          <mxGeometry x="17.5" y="448" width="90" height="45" as="geometry" />
        </mxCell>
        <mxCell id="YCdxMDmoyfIlLzANXsG_-7" style="edgeStyle=orthogonalEdgeStyle;rounded=0;orthogonalLoop=1;jettySize=auto;html=1;entryX=0.5;entryY=1;entryDx=0;entryDy=0;fontFamily=Helvetica;fontSize=12;fontColor=default;" parent="AE6Z6dmu06fyvwp963Fg-20" source="I_-6ljonTevBs9wdl1Ea-16" target="YCdxMDmoyfIlLzANXsG_-1" edge="1">
          <mxGeometry relative="1" as="geometry" />
        </mxCell>
        <mxCell id="I_-6ljonTevBs9wdl1Ea-16" value="Analyze the evidence&amp;nbsp;" style="rounded=1;whiteSpace=wrap;html=1;fillColor=#FFFFFF;" parent="AE6Z6dmu06fyvwp963Fg-20" vertex="1">
          <mxGeometry x="20" y="720" width="90" height="45" as="geometry" />
        </mxCell>
        <mxCell id="YCdxMDmoyfIlLzANXsG_-10" style="edgeStyle=orthogonalEdgeStyle;rounded=0;orthogonalLoop=1;jettySize=auto;html=1;fontFamily=Helvetica;fontSize=12;fontColor=default;" parent="AE6Z6dmu06fyvwp963Fg-20" source="YCdxMDmoyfIlLzANXsG_-1" target="YCdxMDmoyfIlLzANXsG_-9" edge="1">
          <mxGeometry relative="1" as="geometry">
            <Array as="points" />
          </mxGeometry>
        </mxCell>
        <mxCell id="YCdxMDmoyfIlLzANXsG_-1" value="" style="rhombus;whiteSpace=wrap;html=1;" parent="AE6Z6dmu06fyvwp963Fg-20" vertex="1">
          <mxGeometry x="45" y="660" width="40" height="40" as="geometry" />
        </mxCell>
        <mxCell id="YCdxMDmoyfIlLzANXsG_-8" value="is there &lt;br&gt;a violation" style="text;html=1;align=center;verticalAlign=middle;resizable=0;points=[];autosize=1;strokeColor=none;fillColor=none;fontSize=12;fontFamily=Helvetica;fontColor=default;" parent="AE6Z6dmu06fyvwp963Fg-20" vertex="1">
          <mxGeometry x="70" y="660" width="80" height="40" as="geometry" />
        </mxCell>
        <mxCell id="YCdxMDmoyfIlLzANXsG_-9" value="Add the violation to the DB&amp;nbsp;" style="rounded=1;whiteSpace=wrap;html=1;fillColor=#FFFFFF;" parent="AE6Z6dmu06fyvwp963Fg-20" vertex="1">
          <mxGeometry x="20" y="580" width="90" height="60" as="geometry" />
        </mxCell>
        <mxCell id="uA3ACV7uwrfcqAwZaTzj-3" value="Retrieve objections list" style="rounded=1;whiteSpace=wrap;html=1;fillColor=#FFFFFF;" parent="AE6Z6dmu06fyvwp963Fg-20" vertex="1">
          <mxGeometry x="26.5" y="810" width="90" height="45" as="geometry" />
        </mxCell>
        <mxCell id="GZaBHvIjXxec4Wt9Xm2--21" value="change state of the objection" style="rounded=1;whiteSpace=wrap;html=1;fillColor=#FFFFFF;" parent="AE6Z6dmu06fyvwp963Fg-20" vertex="1">
          <mxGeometry x="15" y="940" width="90" height="45" as="geometry" />
        </mxCell>
        <mxCell id="GZaBHvIjXxec4Wt9Xm2--27" style="edgeStyle=orthogonalEdgeStyle;rounded=0;orthogonalLoop=1;jettySize=auto;html=1;entryX=0.482;entryY=0.972;entryDx=0;entryDy=0;entryPerimeter=0;fontFamily=Helvetica;fontSize=12;fontColor=default;" parent="AE6Z6dmu06fyvwp963Fg-20" source="GZaBHvIjXxec4Wt9Xm2--23" target="GZaBHvIjXxec4Wt9Xm2--21" edge="1">
          <mxGeometry relative="1" as="geometry" />
        </mxCell>
        <mxCell id="GZaBHvIjXxec4Wt9Xm2--23" value="Remove the violation record" style="rounded=1;whiteSpace=wrap;html=1;fillColor=#FFFFFF;" parent="AE6Z6dmu06fyvwp963Fg-20" vertex="1">
          <mxGeometry x="13" y="1020" width="90" height="45" as="geometry" />
        </mxCell>
        <mxCell id="nONlLezgtsTq2EoqS3n5-2" value="Valid?" style="text;html=1;align=center;verticalAlign=middle;resizable=0;points=[];autosize=1;strokeColor=none;fillColor=none;" parent="AE6Z6dmu06fyvwp963Fg-20" vertex="1">
          <mxGeometry x="-5" y="200" width="60" height="30" as="geometry" />
        </mxCell>
        <mxCell id="AE6Z6dmu06fyvwp963Fg-36" value="Administration&amp;nbsp;&lt;span style=&quot;font-weight: 400;&quot;&gt;&lt;/span&gt;" style="swimlane;whiteSpace=wrap;html=1;" parent="1" vertex="1">
          <mxGeometry x="-160" y="80" width="270" height="1170" as="geometry" />
        </mxCell>
        <mxCell id="AE6Z6dmu06fyvwp963Fg-37" style="edgeStyle=orthogonalEdgeStyle;rounded=0;orthogonalLoop=1;jettySize=auto;html=1;entryX=0.5;entryY=0;entryDx=0;entryDy=0;" parent="AE6Z6dmu06fyvwp963Fg-36" source="AE6Z6dmu06fyvwp963Fg-39" target="AE6Z6dmu06fyvwp963Fg-41" edge="1">
          <mxGeometry relative="1" as="geometry" />
        </mxCell>
        <mxCell id="AE6Z6dmu06fyvwp963Fg-38" value="Open the application" style="edgeLabel;html=1;align=center;verticalAlign=middle;resizable=0;points=[];" parent="AE6Z6dmu06fyvwp963Fg-37" vertex="1" connectable="0">
          <mxGeometry x="0.3074" relative="1" as="geometry">
            <mxPoint y="-6" as="offset" />
          </mxGeometry>
        </mxCell>
        <mxCell id="AE6Z6dmu06fyvwp963Fg-39" value="" style="ellipse;whiteSpace=wrap;html=1;aspect=fixed;fillColor=#000000;" parent="AE6Z6dmu06fyvwp963Fg-36" vertex="1">
          <mxGeometry x="120" y="30" width="30" height="30" as="geometry" />
        </mxCell>
        <mxCell id="AE6Z6dmu06fyvwp963Fg-40" style="edgeStyle=orthogonalEdgeStyle;rounded=0;orthogonalLoop=1;jettySize=auto;html=1;" parent="AE6Z6dmu06fyvwp963Fg-36" source="AE6Z6dmu06fyvwp963Fg-41" edge="1">
          <mxGeometry relative="1" as="geometry">
            <mxPoint x="290" y="120" as="targetPoint" />
          </mxGeometry>
        </mxCell>
        <mxCell id="AE6Z6dmu06fyvwp963Fg-41" value="Administration&amp;nbsp;login" style="rounded=1;whiteSpace=wrap;html=1;fillColor=#FFFFFF;fontSize=11;" parent="AE6Z6dmu06fyvwp963Fg-36" vertex="1">
          <mxGeometry x="87.5" y="100" width="95" height="40" as="geometry" />
        </mxCell>
        <mxCell id="AE6Z6dmu06fyvwp963Fg-42" value="Enter ID and password" style="rounded=1;whiteSpace=wrap;html=1;fillColor=#FFFFFF;" parent="AE6Z6dmu06fyvwp963Fg-36" vertex="1">
          <mxGeometry x="87.5" y="170" width="95" height="40" as="geometry" />
        </mxCell>
        <mxCell id="AE6Z6dmu06fyvwp963Fg-43" value="" style="rhombus;whiteSpace=wrap;html=1;fillColor=#FFFFFF;" parent="AE6Z6dmu06fyvwp963Fg-36" vertex="1">
          <mxGeometry x="75" y="222.5" width="45" height="45" as="geometry" />
        </mxCell>
        <mxCell id="AE6Z6dmu06fyvwp963Fg-44" value="choose&lt;br&gt;&amp;nbsp;page" style="text;html=1;align=center;verticalAlign=middle;resizable=0;points=[];autosize=1;strokeColor=none;fillColor=none;" parent="AE6Z6dmu06fyvwp963Fg-36" vertex="1">
          <mxGeometry x="25" y="205" width="60" height="40" as="geometry" />
        </mxCell>
        <mxCell id="AE6Z6dmu06fyvwp963Fg-47" value="" style="endArrow=classic;html=1;rounded=0;entryX=0;entryY=0.5;entryDx=0;entryDy=0;" parent="AE6Z6dmu06fyvwp963Fg-36" target="AE6Z6dmu06fyvwp963Fg-13" edge="1">
          <mxGeometry width="50" height="50" relative="1" as="geometry">
            <mxPoint x="100" y="353" as="sourcePoint" />
            <mxPoint x="200" y="420" as="targetPoint" />
          </mxGeometry>
        </mxCell>
        <mxCell id="AE6Z6dmu06fyvwp963Fg-48" value="Record inquiry" style="edgeLabel;html=1;align=center;verticalAlign=middle;resizable=0;points=[];" parent="AE6Z6dmu06fyvwp963Fg-47" vertex="1" connectable="0">
          <mxGeometry x="-0.4692" relative="1" as="geometry">
            <mxPoint as="offset" />
          </mxGeometry>
        </mxCell>
        <mxCell id="AE6Z6dmu06fyvwp963Fg-49" value="" style="endArrow=classic;html=1;rounded=0;entryX=0.531;entryY=-0.026;entryDx=0;entryDy=0;entryPerimeter=0;" parent="AE6Z6dmu06fyvwp963Fg-36" target="AE6Z6dmu06fyvwp963Fg-51" edge="1">
          <mxGeometry width="50" height="50" relative="1" as="geometry">
            <mxPoint x="98" y="830" as="sourcePoint" />
            <mxPoint x="95.3" y="1120" as="targetPoint" />
          </mxGeometry>
        </mxCell>
        <mxCell id="AE6Z6dmu06fyvwp963Fg-50" value="Exit" style="edgeLabel;html=1;align=center;verticalAlign=middle;resizable=0;points=[];" parent="AE6Z6dmu06fyvwp963Fg-49" vertex="1" connectable="0">
          <mxGeometry x="0.1928" relative="1" as="geometry">
            <mxPoint as="offset" />
          </mxGeometry>
        </mxCell>
        <mxCell id="AE6Z6dmu06fyvwp963Fg-51" value="" style="ellipse;html=1;shape=endState;fillColor=#000000;strokeColor=#ff0000;strokeWidth=2;fontSize=8;" parent="AE6Z6dmu06fyvwp963Fg-36" vertex="1">
          <mxGeometry x="81.5" y="1120" width="30" height="30" as="geometry" />
        </mxCell>
        <mxCell id="AE6Z6dmu06fyvwp963Fg-94" value="Enter student ID" style="rounded=1;whiteSpace=wrap;html=1;fontSize=11;fillColor=#FFFFFF;" parent="AE6Z6dmu06fyvwp963Fg-36" vertex="1">
          <mxGeometry x="140" y="400" width="80" height="40" as="geometry" />
        </mxCell>
        <mxCell id="I_-6ljonTevBs9wdl1Ea-7" value="" style="endArrow=classic;html=1;rounded=0;fontSize=11;" parent="AE6Z6dmu06fyvwp963Fg-36" edge="1">
          <mxGeometry width="50" height="50" relative="1" as="geometry">
            <mxPoint x="100" y="660" as="sourcePoint" />
            <mxPoint x="280" y="660" as="targetPoint" />
          </mxGeometry>
        </mxCell>
        <mxCell id="uA3ACV7uwrfcqAwZaTzj-1" value="File a vioation" style="edgeLabel;html=1;align=center;verticalAlign=middle;resizable=0;points=[];fontSize=12;fontFamily=Helvetica;fontColor=default;" parent="I_-6ljonTevBs9wdl1Ea-7" vertex="1" connectable="0">
          <mxGeometry x="-0.5284" y="-2" relative="1" as="geometry">
            <mxPoint as="offset" />
          </mxGeometry>
        </mxCell>
        <mxCell id="I_-6ljonTevBs9wdl1Ea-13" style="edgeStyle=orthogonalEdgeStyle;rounded=0;orthogonalLoop=1;jettySize=auto;html=1;fontSize=11;" parent="AE6Z6dmu06fyvwp963Fg-36" source="I_-6ljonTevBs9wdl1Ea-11" edge="1">
          <mxGeometry relative="1" as="geometry">
            <mxPoint x="310" y="740" as="targetPoint" />
          </mxGeometry>
        </mxCell>
        <mxCell id="I_-6ljonTevBs9wdl1Ea-11" value="Enter the student ID and evidence of the violtion" style="rounded=1;whiteSpace=wrap;html=1;fillColor=#FFFFFF;" parent="AE6Z6dmu06fyvwp963Fg-36" vertex="1">
          <mxGeometry x="140" y="710" width="90" height="60" as="geometry" />
        </mxCell>
        <mxCell id="GZaBHvIjXxec4Wt9Xm2--3" value="Choose objection" style="rounded=1;whiteSpace=wrap;html=1;fillColor=#FFFFFF;" parent="AE6Z6dmu06fyvwp963Fg-36" vertex="1">
          <mxGeometry x="130" y="952.5" width="90" height="40" as="geometry" />
        </mxCell>
        <mxCell id="GZaBHvIjXxec4Wt9Xm2--8" style="edgeStyle=orthogonalEdgeStyle;rounded=0;orthogonalLoop=1;jettySize=auto;html=1;entryX=0.5;entryY=0;entryDx=0;entryDy=0;fontFamily=Helvetica;fontSize=12;fontColor=default;" parent="AE6Z6dmu06fyvwp963Fg-36" source="GZaBHvIjXxec4Wt9Xm2--4" target="GZaBHvIjXxec4Wt9Xm2--3" edge="1">
          <mxGeometry relative="1" as="geometry" />
        </mxCell>
        <mxCell id="GZaBHvIjXxec4Wt9Xm2--10" value="Yes" style="edgeLabel;html=1;align=center;verticalAlign=middle;resizable=0;points=[];fontSize=12;fontFamily=Helvetica;fontColor=default;" parent="GZaBHvIjXxec4Wt9Xm2--8" vertex="1" connectable="0">
          <mxGeometry x="-0.3337" relative="1" as="geometry">
            <mxPoint x="12" y="-1" as="offset" />
          </mxGeometry>
        </mxCell>
        <mxCell id="GZaBHvIjXxec4Wt9Xm2--4" value="" style="rhombus;whiteSpace=wrap;html=1;fillColor=#FFFFFF;" parent="AE6Z6dmu06fyvwp963Fg-36" vertex="1">
          <mxGeometry x="154" y="872.5" width="42" height="40" as="geometry" />
        </mxCell>
        <mxCell id="GZaBHvIjXxec4Wt9Xm2--15" style="edgeStyle=orthogonalEdgeStyle;rounded=0;orthogonalLoop=1;jettySize=auto;html=1;fontFamily=Helvetica;fontSize=12;fontColor=default;" parent="AE6Z6dmu06fyvwp963Fg-36" source="GZaBHvIjXxec4Wt9Xm2--12" edge="1">
          <mxGeometry relative="1" as="geometry">
            <mxPoint x="300" y="1042.5" as="targetPoint" />
          </mxGeometry>
        </mxCell>
        <mxCell id="GZaBHvIjXxec4Wt9Xm2--19" value="Reject&amp;nbsp;" style="edgeLabel;html=1;align=center;verticalAlign=middle;resizable=0;points=[];fontSize=12;fontFamily=Helvetica;fontColor=default;" parent="GZaBHvIjXxec4Wt9Xm2--15" vertex="1" connectable="0">
          <mxGeometry x="-0.2161" y="1" relative="1" as="geometry">
            <mxPoint as="offset" />
          </mxGeometry>
        </mxCell>
        <mxCell id="GZaBHvIjXxec4Wt9Xm2--12" value="" style="rhombus;whiteSpace=wrap;html=1;fillColor=#FFFFFF;" parent="AE6Z6dmu06fyvwp963Fg-36" vertex="1">
          <mxGeometry x="154" y="1022.5" width="42" height="40" as="geometry" />
        </mxCell>
        <mxCell id="AE6Z6dmu06fyvwp963Fg-61" style="edgeStyle=orthogonalEdgeStyle;rounded=0;orthogonalLoop=1;jettySize=auto;html=1;entryX=0.511;entryY=-0.06;entryDx=0;entryDy=0;entryPerimeter=0;" parent="1" source="AE6Z6dmu06fyvwp963Fg-3" target="AE6Z6dmu06fyvwp963Fg-42" edge="1">
          <mxGeometry relative="1" as="geometry">
            <Array as="points">
              <mxPoint x="188" y="230" />
              <mxPoint x="-24" y="230" />
            </Array>
          </mxGeometry>
        </mxCell>
        <mxCell id="AE6Z6dmu06fyvwp963Fg-62" style="edgeStyle=orthogonalEdgeStyle;rounded=0;orthogonalLoop=1;jettySize=auto;html=1;entryX=0;entryY=0.5;entryDx=0;entryDy=0;" parent="1" source="AE6Z6dmu06fyvwp963Fg-42" target="AE6Z6dmu06fyvwp963Fg-4" edge="1">
          <mxGeometry relative="1" as="geometry" />
        </mxCell>
        <mxCell id="AE6Z6dmu06fyvwp963Fg-63" style="edgeStyle=orthogonalEdgeStyle;rounded=0;orthogonalLoop=1;jettySize=auto;html=1;entryX=0;entryY=0.5;entryDx=0;entryDy=0;" parent="1" source="AE6Z6dmu06fyvwp963Fg-4" target="AE6Z6dmu06fyvwp963Fg-24" edge="1">
          <mxGeometry relative="1" as="geometry" />
        </mxCell>
        <mxCell id="AE6Z6dmu06fyvwp963Fg-66" style="edgeStyle=orthogonalEdgeStyle;rounded=0;orthogonalLoop=1;jettySize=auto;html=1;entryX=1;entryY=0.5;entryDx=0;entryDy=0;" parent="1" source="AE6Z6dmu06fyvwp963Fg-11" target="AE6Z6dmu06fyvwp963Fg-43" edge="1">
          <mxGeometry relative="1" as="geometry">
            <mxPoint x="22.5" y="325" as="targetPoint" />
          </mxGeometry>
        </mxCell>
        <mxCell id="AE6Z6dmu06fyvwp963Fg-67" style="edgeStyle=orthogonalEdgeStyle;rounded=0;orthogonalLoop=1;jettySize=auto;html=1;exitX=0.5;exitY=1;exitDx=0;exitDy=0;entryX=0;entryY=0.5;entryDx=0;entryDy=0;" parent="1" source="AE6Z6dmu06fyvwp963Fg-43" target="AE6Z6dmu06fyvwp963Fg-12" edge="1">
          <mxGeometry relative="1" as="geometry">
            <Array as="points">
              <mxPoint x="-62" y="913" />
              <mxPoint x="-50" y="913" />
            </Array>
          </mxGeometry>
        </mxCell>
        <mxCell id="uA3ACV7uwrfcqAwZaTzj-2" value="Objections managment" style="edgeLabel;html=1;align=center;verticalAlign=middle;resizable=0;points=[];fontSize=12;fontFamily=Helvetica;fontColor=default;" parent="AE6Z6dmu06fyvwp963Fg-67" vertex="1" connectable="0">
          <mxGeometry x="0.6587" relative="1" as="geometry">
            <mxPoint x="27" y="-10" as="offset" />
          </mxGeometry>
        </mxCell>
        <mxCell id="AE6Z6dmu06fyvwp963Fg-74" style="edgeStyle=orthogonalEdgeStyle;rounded=0;orthogonalLoop=1;jettySize=auto;html=1;entryX=1;entryY=0.5;entryDx=0;entryDy=0;" parent="1" source="AE6Z6dmu06fyvwp963Fg-26" target="AE6Z6dmu06fyvwp963Fg-16" edge="1">
          <mxGeometry relative="1" as="geometry">
            <Array as="points">
              <mxPoint x="383" y="643" />
              <mxPoint x="279" y="643" />
            </Array>
          </mxGeometry>
        </mxCell>
        <mxCell id="AE6Z6dmu06fyvwp963Fg-75" value="Tx: violation records" style="edgeLabel;html=1;align=center;verticalAlign=middle;resizable=0;points=[];" parent="AE6Z6dmu06fyvwp963Fg-74" vertex="1" connectable="0">
          <mxGeometry x="0.0401" relative="1" as="geometry">
            <mxPoint as="offset" />
          </mxGeometry>
        </mxCell>
        <mxCell id="AE6Z6dmu06fyvwp963Fg-76" style="edgeStyle=orthogonalEdgeStyle;rounded=0;orthogonalLoop=1;jettySize=auto;html=1;entryX=0;entryY=0.5;entryDx=0;entryDy=0;exitX=1;exitY=0.5;exitDx=0;exitDy=0;" parent="1" source="I_-6ljonTevBs9wdl1Ea-1" target="AE6Z6dmu06fyvwp963Fg-26" edge="1">
          <mxGeometry relative="1" as="geometry">
            <Array as="points">
              <mxPoint x="276" y="551" />
              <mxPoint x="338" y="550" />
            </Array>
          </mxGeometry>
        </mxCell>
        <mxCell id="AE6Z6dmu06fyvwp963Fg-77" value="Tx: student ID" style="edgeLabel;html=1;align=center;verticalAlign=middle;resizable=0;points=[];" parent="AE6Z6dmu06fyvwp963Fg-76" vertex="1" connectable="0">
          <mxGeometry x="0.1624" y="2" relative="1" as="geometry">
            <mxPoint as="offset" />
          </mxGeometry>
        </mxCell>
        <mxCell id="I_-6ljonTevBs9wdl1Ea-2" style="edgeStyle=orthogonalEdgeStyle;rounded=0;orthogonalLoop=1;jettySize=auto;html=1;entryX=0;entryY=0.5;entryDx=0;entryDy=0;fontSize=11;" parent="1" source="AE6Z6dmu06fyvwp963Fg-94" target="I_-6ljonTevBs9wdl1Ea-1" edge="1">
          <mxGeometry relative="1" as="geometry">
            <Array as="points">
              <mxPoint x="20" y="551" />
            </Array>
          </mxGeometry>
        </mxCell>
        <mxCell id="I_-6ljonTevBs9wdl1Ea-12" style="edgeStyle=orthogonalEdgeStyle;rounded=0;orthogonalLoop=1;jettySize=auto;html=1;fontSize=11;" parent="1" source="I_-6ljonTevBs9wdl1Ea-8" target="I_-6ljonTevBs9wdl1Ea-11" edge="1">
          <mxGeometry relative="1" as="geometry">
            <Array as="points">
              <mxPoint x="160" y="770" />
              <mxPoint x="25" y="770" />
            </Array>
          </mxGeometry>
        </mxCell>
        <mxCell id="I_-6ljonTevBs9wdl1Ea-17" style="edgeStyle=orthogonalEdgeStyle;rounded=0;orthogonalLoop=1;jettySize=auto;html=1;entryX=0;entryY=0.5;entryDx=0;entryDy=0;fontFamily=Helvetica;fontSize=12;fontColor=default;" parent="1" source="I_-6ljonTevBs9wdl1Ea-14" target="I_-6ljonTevBs9wdl1Ea-16" edge="1">
          <mxGeometry relative="1" as="geometry" />
        </mxCell>
        <mxCell id="YCdxMDmoyfIlLzANXsG_-3" style="edgeStyle=orthogonalEdgeStyle;rounded=0;orthogonalLoop=1;jettySize=auto;html=1;entryX=1;entryY=0.5;entryDx=0;entryDy=0;fontFamily=Helvetica;fontSize=12;fontColor=default;" parent="1" source="YCdxMDmoyfIlLzANXsG_-1" target="YCdxMDmoyfIlLzANXsG_-2" edge="1">
          <mxGeometry relative="1" as="geometry" />
        </mxCell>
        <mxCell id="YCdxMDmoyfIlLzANXsG_-4" value="No" style="edgeLabel;html=1;align=center;verticalAlign=middle;resizable=0;points=[];fontSize=12;fontFamily=Helvetica;fontColor=default;" parent="YCdxMDmoyfIlLzANXsG_-3" vertex="1" connectable="0">
          <mxGeometry x="0.2136" y="-1" relative="1" as="geometry">
            <mxPoint as="offset" />
          </mxGeometry>
        </mxCell>
        <mxCell id="uA3ACV7uwrfcqAwZaTzj-4" style="edgeStyle=orthogonalEdgeStyle;rounded=0;orthogonalLoop=1;jettySize=auto;html=1;entryX=0;entryY=0.5;entryDx=0;entryDy=0;fontFamily=Helvetica;fontSize=12;fontColor=default;" parent="1" source="AE6Z6dmu06fyvwp963Fg-12" target="uA3ACV7uwrfcqAwZaTzj-3" edge="1">
          <mxGeometry relative="1" as="geometry" />
        </mxCell>
        <mxCell id="uA3ACV7uwrfcqAwZaTzj-8" style="edgeStyle=orthogonalEdgeStyle;rounded=0;orthogonalLoop=1;jettySize=auto;html=1;fontFamily=Helvetica;fontSize=12;fontColor=default;entryX=1;entryY=0.5;entryDx=0;entryDy=0;" parent="1" source="uA3ACV7uwrfcqAwZaTzj-3" target="GZaBHvIjXxec4Wt9Xm2--1" edge="1">
          <mxGeometry relative="1" as="geometry">
            <mxPoint x="246.5" y="982.5" as="targetPoint" />
            <Array as="points">
              <mxPoint x="391.5" y="982.5" />
              <mxPoint x="231.5" y="982.5" />
            </Array>
          </mxGeometry>
        </mxCell>
        <mxCell id="GZaBHvIjXxec4Wt9Xm2--5" value="" style="endArrow=classic;startArrow=classic;html=1;rounded=0;fontFamily=Helvetica;fontSize=12;fontColor=default;entryX=0;entryY=0.5;entryDx=0;entryDy=0;exitX=1;exitY=0.5;exitDx=0;exitDy=0;" parent="1" source="GZaBHvIjXxec4Wt9Xm2--4" target="GZaBHvIjXxec4Wt9Xm2--1" edge="1">
          <mxGeometry width="50" height="50" relative="1" as="geometry">
            <mxPoint x="-73.5" y="1042.5" as="sourcePoint" />
            <mxPoint x="-23.5" y="992.5" as="targetPoint" />
            <Array as="points">
              <mxPoint x="86.5" y="972.5" />
              <mxPoint x="86.5" y="982.5" />
            </Array>
          </mxGeometry>
        </mxCell>
        <mxCell id="GZaBHvIjXxec4Wt9Xm2--6" value="Exit objections?" style="edgeLabel;html=1;align=center;verticalAlign=middle;resizable=0;points=[];fontSize=12;fontFamily=Helvetica;fontColor=default;" parent="GZaBHvIjXxec4Wt9Xm2--5" vertex="1" connectable="0">
          <mxGeometry x="-0.2049" y="2" relative="1" as="geometry">
            <mxPoint x="-13" y="-18" as="offset" />
          </mxGeometry>
        </mxCell>
        <mxCell id="GZaBHvIjXxec4Wt9Xm2--7" value="No" style="edgeLabel;html=1;align=center;verticalAlign=middle;resizable=0;points=[];fontSize=12;fontFamily=Helvetica;fontColor=default;" parent="GZaBHvIjXxec4Wt9Xm2--5" vertex="1" connectable="0">
          <mxGeometry x="-0.4032" relative="1" as="geometry">
            <mxPoint as="offset" />
          </mxGeometry>
        </mxCell>
        <mxCell id="GZaBHvIjXxec4Wt9Xm2--11" style="edgeStyle=orthogonalEdgeStyle;rounded=0;orthogonalLoop=1;jettySize=auto;html=1;fontFamily=Helvetica;fontSize=12;fontColor=default;" parent="1" source="GZaBHvIjXxec4Wt9Xm2--3" target="GZaBHvIjXxec4Wt9Xm2--9" edge="1">
          <mxGeometry relative="1" as="geometry" />
        </mxCell>
        <mxCell id="GZaBHvIjXxec4Wt9Xm2--13" style="edgeStyle=orthogonalEdgeStyle;rounded=0;orthogonalLoop=1;jettySize=auto;html=1;fontFamily=Helvetica;fontSize=12;fontColor=default;" parent="1" source="GZaBHvIjXxec4Wt9Xm2--9" target="GZaBHvIjXxec4Wt9Xm2--12" edge="1">
          <mxGeometry relative="1" as="geometry">
            <Array as="points">
              <mxPoint x="176.5" y="1082.5" />
              <mxPoint x="15.5" y="1082.5" />
            </Array>
          </mxGeometry>
        </mxCell>
        <mxCell id="GZaBHvIjXxec4Wt9Xm2--18" style="edgeStyle=orthogonalEdgeStyle;rounded=0;orthogonalLoop=1;jettySize=auto;html=1;entryX=0;entryY=0.5;entryDx=0;entryDy=0;fontFamily=Helvetica;fontSize=12;fontColor=default;" parent="1" source="GZaBHvIjXxec4Wt9Xm2--12" target="GZaBHvIjXxec4Wt9Xm2--17" edge="1">
          <mxGeometry relative="1" as="geometry">
            <Array as="points">
              <mxPoint x="15" y="1193" />
            </Array>
          </mxGeometry>
        </mxCell>
        <mxCell id="GZaBHvIjXxec4Wt9Xm2--20" value="Accept" style="edgeLabel;html=1;align=center;verticalAlign=middle;resizable=0;points=[];fontSize=12;fontFamily=Helvetica;fontColor=default;" parent="GZaBHvIjXxec4Wt9Xm2--18" vertex="1" connectable="0">
          <mxGeometry x="0.0924" relative="1" as="geometry">
            <mxPoint as="offset" />
          </mxGeometry>
        </mxCell>
        <mxCell id="GZaBHvIjXxec4Wt9Xm2--22" style="edgeStyle=orthogonalEdgeStyle;rounded=0;orthogonalLoop=1;jettySize=auto;html=1;entryX=0;entryY=0.5;entryDx=0;entryDy=0;fontFamily=Helvetica;fontSize=12;fontColor=default;" parent="1" source="GZaBHvIjXxec4Wt9Xm2--16" target="GZaBHvIjXxec4Wt9Xm2--21" edge="1">
          <mxGeometry relative="1" as="geometry">
            <Array as="points">
              <mxPoint x="260" y="1123" />
              <mxPoint x="260" y="1043" />
            </Array>
          </mxGeometry>
        </mxCell>
        <mxCell id="GZaBHvIjXxec4Wt9Xm2--24" style="edgeStyle=orthogonalEdgeStyle;rounded=0;orthogonalLoop=1;jettySize=auto;html=1;entryX=0;entryY=0.5;entryDx=0;entryDy=0;fontFamily=Helvetica;fontSize=12;fontColor=default;" parent="1" source="GZaBHvIjXxec4Wt9Xm2--17" target="GZaBHvIjXxec4Wt9Xm2--23" edge="1">
          <mxGeometry relative="1" as="geometry">
            <Array as="points">
              <mxPoint x="300" y="1193" />
              <mxPoint x="300" y="1123" />
            </Array>
          </mxGeometry>
        </mxCell>
        <mxCell id="GZaBHvIjXxec4Wt9Xm2--28" style="edgeStyle=orthogonalEdgeStyle;rounded=0;orthogonalLoop=1;jettySize=auto;html=1;entryX=1;entryY=0.75;entryDx=0;entryDy=0;fontFamily=Helvetica;fontSize=12;fontColor=default;" parent="1" source="GZaBHvIjXxec4Wt9Xm2--21" target="GZaBHvIjXxec4Wt9Xm2--1" edge="1">
          <mxGeometry relative="1" as="geometry">
            <Array as="points">
              <mxPoint x="380" y="1010" />
              <mxPoint x="281" y="1010" />
              <mxPoint x="281" y="993" />
            </Array>
          </mxGeometry>
        </mxCell>
        <mxCell id="AE6Z6dmu06fyvwp963Fg-92" style="edgeStyle=orthogonalEdgeStyle;rounded=0;orthogonalLoop=1;jettySize=auto;html=1;fontSize=11;entryX=1;entryY=0.5;entryDx=0;entryDy=0;" parent="1" source="AE6Z6dmu06fyvwp963Fg-13" target="AE6Z6dmu06fyvwp963Fg-94" edge="1">
          <mxGeometry relative="1" as="geometry">
            <mxPoint x="60" y="490" as="targetPoint" />
            <Array as="points">
              <mxPoint x="165" y="500" />
            </Array>
          </mxGeometry>
        </mxCell>
        <mxCell id="nONlLezgtsTq2EoqS3n5-1" style="edgeStyle=orthogonalEdgeStyle;rounded=0;orthogonalLoop=1;jettySize=auto;html=1;entryX=1;entryY=0.5;entryDx=0;entryDy=0;" parent="1" source="AE6Z6dmu06fyvwp963Fg-24" target="AE6Z6dmu06fyvwp963Fg-8" edge="1">
          <mxGeometry relative="1" as="geometry">
            <Array as="points">
              <mxPoint x="380" y="325" />
            </Array>
          </mxGeometry>
        </mxCell>
      </root>
    </mxGraphModel>
  </diagram>
  <diagram id="E7iGw36XXSeyCD2BDt-m" name="Page-4">
    <mxGraphModel dx="1232" dy="1146" grid="1" gridSize="10" guides="1" tooltips="1" connect="1" arrows="1" fold="1" page="1" pageScale="1" pageWidth="850" pageHeight="1100" math="0" shadow="0">
      <root>
        <mxCell id="0" />
        <mxCell id="1" parent="0" />
        <mxCell id="PuTpVyu4DHhZ1jbtTE2c-1" value="Student" style="swimlane;whiteSpace=wrap;html=1;" vertex="1" parent="1">
          <mxGeometry x="170" y="300" width="230" height="450" as="geometry" />
        </mxCell>
        <mxCell id="PuTpVyu4DHhZ1jbtTE2c-2" style="edgeStyle=orthogonalEdgeStyle;rounded=0;orthogonalLoop=1;jettySize=auto;html=1;entryX=0.5;entryY=0;entryDx=0;entryDy=0;" edge="1" parent="PuTpVyu4DHhZ1jbtTE2c-1" source="PuTpVyu4DHhZ1jbtTE2c-3">
          <mxGeometry relative="1" as="geometry">
            <mxPoint x="115" y="110" as="targetPoint" />
          </mxGeometry>
        </mxCell>
        <mxCell id="PuTpVyu4DHhZ1jbtTE2c-3" value="" style="ellipse;whiteSpace=wrap;html=1;aspect=fixed;fillColor=#000000;" vertex="1" parent="PuTpVyu4DHhZ1jbtTE2c-1">
          <mxGeometry x="100" y="40" width="30" height="30" as="geometry" />
        </mxCell>
        <mxCell id="PuTpVyu4DHhZ1jbtTE2c-4" value="Open &quot;History&quot; page" style="rounded=1;whiteSpace=wrap;html=1;fillColor=#FFFFFF;fontSize=11;" vertex="1" parent="PuTpVyu4DHhZ1jbtTE2c-1">
          <mxGeometry x="67.5" y="110" width="95" height="40" as="geometry" />
        </mxCell>
        <mxCell id="PuTpVyu4DHhZ1jbtTE2c-5" style="edgeStyle=orthogonalEdgeStyle;rounded=0;orthogonalLoop=1;jettySize=auto;html=1;" edge="1" parent="PuTpVyu4DHhZ1jbtTE2c-1" source="PuTpVyu4DHhZ1jbtTE2c-8">
          <mxGeometry relative="1" as="geometry">
            <mxPoint x="40" y="240" as="targetPoint" />
          </mxGeometry>
        </mxCell>
        <mxCell id="PuTpVyu4DHhZ1jbtTE2c-6" value="No" style="edgeLabel;html=1;align=center;verticalAlign=middle;resizable=0;points=[];" vertex="1" connectable="0" parent="PuTpVyu4DHhZ1jbtTE2c-5">
          <mxGeometry x="0.2042" y="1" relative="1" as="geometry">
            <mxPoint as="offset" />
          </mxGeometry>
        </mxCell>
        <mxCell id="PuTpVyu4DHhZ1jbtTE2c-7" value="" style="edgeStyle=orthogonalEdgeStyle;rounded=0;orthogonalLoop=1;jettySize=auto;html=1;" edge="1" parent="PuTpVyu4DHhZ1jbtTE2c-1" source="PuTpVyu4DHhZ1jbtTE2c-8" target="PuTpVyu4DHhZ1jbtTE2c-11">
          <mxGeometry relative="1" as="geometry" />
        </mxCell>
        <mxCell id="PuTpVyu4DHhZ1jbtTE2c-8" value="" style="rhombus;whiteSpace=wrap;html=1;" vertex="1" parent="PuTpVyu4DHhZ1jbtTE2c-1">
          <mxGeometry x="89" y="205" width="52" height="50" as="geometry" />
        </mxCell>
        <mxCell id="PuTpVyu4DHhZ1jbtTE2c-9" value="Want to object?" style="text;html=1;align=center;verticalAlign=middle;resizable=0;points=[];autosize=1;strokeColor=none;fillColor=none;" vertex="1" parent="PuTpVyu4DHhZ1jbtTE2c-1">
          <mxGeometry x="9" y="185" width="110" height="30" as="geometry" />
        </mxCell>
        <mxCell id="PuTpVyu4DHhZ1jbtTE2c-10" value="" style="ellipse;html=1;shape=endState;fillColor=#000000;strokeColor=#ff0000;strokeWidth=2;fontSize=8;" vertex="1" parent="PuTpVyu4DHhZ1jbtTE2c-1">
          <mxGeometry x="9" y="225" width="30" height="30" as="geometry" />
        </mxCell>
        <mxCell id="PuTpVyu4DHhZ1jbtTE2c-11" value="Enter objection reason" style="whiteSpace=wrap;html=1;fontSize=11;fillColor=#FFFFFF;rounded=1;" vertex="1" parent="PuTpVyu4DHhZ1jbtTE2c-1">
          <mxGeometry x="67.5" y="280" width="95" height="40" as="geometry" />
        </mxCell>
        <mxCell id="PuTpVyu4DHhZ1jbtTE2c-12" value="System" style="swimlane;whiteSpace=wrap;html=1;" vertex="1" parent="1">
          <mxGeometry x="400" y="300" width="160" height="450" as="geometry" />
        </mxCell>
        <mxCell id="PuTpVyu4DHhZ1jbtTE2c-13" value="" style="edgeStyle=orthogonalEdgeStyle;rounded=0;orthogonalLoop=1;jettySize=auto;html=1;" edge="1" parent="PuTpVyu4DHhZ1jbtTE2c-12" source="PuTpVyu4DHhZ1jbtTE2c-14" target="PuTpVyu4DHhZ1jbtTE2c-15">
          <mxGeometry relative="1" as="geometry" />
        </mxCell>
        <mxCell id="PuTpVyu4DHhZ1jbtTE2c-14" value="Retrieve records" style="rounded=1;whiteSpace=wrap;html=1;fillColor=#FFFFFF;fontSize=11;" vertex="1" parent="PuTpVyu4DHhZ1jbtTE2c-12">
          <mxGeometry x="25" y="150" width="95" height="40" as="geometry" />
        </mxCell>
        <mxCell id="PuTpVyu4DHhZ1jbtTE2c-15" value="show the records" style="whiteSpace=wrap;html=1;fontSize=11;fillColor=#FFFFFF;rounded=1;" vertex="1" parent="PuTpVyu4DHhZ1jbtTE2c-12">
          <mxGeometry x="25" y="210" width="95" height="40" as="geometry" />
        </mxCell>
        <mxCell id="PuTpVyu4DHhZ1jbtTE2c-16" value="submit the objection" style="whiteSpace=wrap;html=1;fontSize=11;fillColor=#FFFFFF;rounded=1;" vertex="1" parent="PuTpVyu4DHhZ1jbtTE2c-12">
          <mxGeometry x="25" y="280" width="95" height="40" as="geometry" />
        </mxCell>
        <mxCell id="PuTpVyu4DHhZ1jbtTE2c-17" value="Remove remove and update the details" style="whiteSpace=wrap;html=1;fontSize=11;fillColor=#FFFFFF;rounded=1;" vertex="1" parent="PuTpVyu4DHhZ1jbtTE2c-12">
          <mxGeometry x="25" y="330" width="95" height="40" as="geometry" />
        </mxCell>
        <mxCell id="PuTpVyu4DHhZ1jbtTE2c-18" style="edgeStyle=orthogonalEdgeStyle;rounded=0;orthogonalLoop=1;jettySize=auto;html=1;entryX=0;entryY=0.5;entryDx=0;entryDy=0;" edge="1" parent="1" source="PuTpVyu4DHhZ1jbtTE2c-4" target="PuTpVyu4DHhZ1jbtTE2c-14">
          <mxGeometry relative="1" as="geometry">
            <Array as="points">
              <mxPoint x="280" y="470" />
            </Array>
          </mxGeometry>
        </mxCell>
        <mxCell id="PuTpVyu4DHhZ1jbtTE2c-19" style="edgeStyle=orthogonalEdgeStyle;rounded=0;orthogonalLoop=1;jettySize=auto;html=1;entryX=1;entryY=0.5;entryDx=0;entryDy=0;" edge="1" parent="1" source="PuTpVyu4DHhZ1jbtTE2c-15" target="PuTpVyu4DHhZ1jbtTE2c-8">
          <mxGeometry relative="1" as="geometry">
            <mxPoint x="320" y="530" as="targetPoint" />
          </mxGeometry>
        </mxCell>
        <mxCell id="PuTpVyu4DHhZ1jbtTE2c-20" style="edgeStyle=orthogonalEdgeStyle;rounded=0;orthogonalLoop=1;jettySize=auto;html=1;" edge="1" parent="1" source="PuTpVyu4DHhZ1jbtTE2c-11" target="PuTpVyu4DHhZ1jbtTE2c-16">
          <mxGeometry relative="1" as="geometry">
            <mxPoint x="430.0000000000001" y="600" as="targetPoint" />
          </mxGeometry>
        </mxCell>
        <mxCell id="PuTpVyu4DHhZ1jbtTE2c-21" value="Adminstration" style="swimlane;whiteSpace=wrap;html=1;" vertex="1" parent="1">
          <mxGeometry x="560" y="300" width="210" height="450" as="geometry" />
        </mxCell>
        <mxCell id="PuTpVyu4DHhZ1jbtTE2c-22" value="" style="rhombus;whiteSpace=wrap;html=1;" vertex="1" parent="PuTpVyu4DHhZ1jbtTE2c-21">
          <mxGeometry x="70" y="183" width="52" height="50" as="geometry" />
        </mxCell>
        <mxCell id="PuTpVyu4DHhZ1jbtTE2c-23" value="Accept objection?" style="text;html=1;align=center;verticalAlign=middle;resizable=0;points=[];autosize=1;strokeColor=none;fillColor=none;" vertex="1" parent="PuTpVyu4DHhZ1jbtTE2c-21">
          <mxGeometry x="90" y="152" width="120" height="30" as="geometry" />
        </mxCell>
        <mxCell id="PuTpVyu4DHhZ1jbtTE2c-24" style="edgeStyle=orthogonalEdgeStyle;rounded=0;orthogonalLoop=1;jettySize=auto;html=1;entryX=0;entryY=0.5;entryDx=0;entryDy=0;" edge="1" parent="1" source="PuTpVyu4DHhZ1jbtTE2c-16" target="PuTpVyu4DHhZ1jbtTE2c-22">
          <mxGeometry relative="1" as="geometry">
            <mxPoint x="650" y="530" as="targetPoint" />
            <Array as="points">
              <mxPoint x="570" y="600" />
              <mxPoint x="570" y="508" />
            </Array>
          </mxGeometry>
        </mxCell>
        <mxCell id="PuTpVyu4DHhZ1jbtTE2c-25" style="edgeStyle=orthogonalEdgeStyle;rounded=0;orthogonalLoop=1;jettySize=auto;html=1;entryX=0.5;entryY=1;entryDx=0;entryDy=0;" edge="1" parent="1" source="PuTpVyu4DHhZ1jbtTE2c-22" target="PuTpVyu4DHhZ1jbtTE2c-10">
          <mxGeometry relative="1" as="geometry">
            <Array as="points">
              <mxPoint x="710" y="508" />
              <mxPoint x="710" y="720" />
              <mxPoint x="194" y="720" />
            </Array>
          </mxGeometry>
        </mxCell>
        <mxCell id="PuTpVyu4DHhZ1jbtTE2c-26" value="No" style="edgeLabel;html=1;align=center;verticalAlign=middle;resizable=0;points=[];" vertex="1" connectable="0" parent="PuTpVyu4DHhZ1jbtTE2c-25">
          <mxGeometry x="-0.3107" y="-3" relative="1" as="geometry">
            <mxPoint as="offset" />
          </mxGeometry>
        </mxCell>
        <mxCell id="PuTpVyu4DHhZ1jbtTE2c-27" style="edgeStyle=orthogonalEdgeStyle;rounded=0;orthogonalLoop=1;jettySize=auto;html=1;entryX=1;entryY=0.5;entryDx=0;entryDy=0;" edge="1" parent="1" source="PuTpVyu4DHhZ1jbtTE2c-22" target="PuTpVyu4DHhZ1jbtTE2c-17">
          <mxGeometry relative="1" as="geometry">
            <mxPoint x="530" y="650" as="targetPoint" />
            <Array as="points">
              <mxPoint x="656" y="650" />
            </Array>
          </mxGeometry>
        </mxCell>
        <mxCell id="PuTpVyu4DHhZ1jbtTE2c-28" value="Yes" style="edgeLabel;html=1;align=center;verticalAlign=middle;resizable=0;points=[];" vertex="1" connectable="0" parent="PuTpVyu4DHhZ1jbtTE2c-27">
          <mxGeometry x="0.2781" y="1" relative="1" as="geometry">
            <mxPoint as="offset" />
          </mxGeometry>
        </mxCell>
        <mxCell id="PuTpVyu4DHhZ1jbtTE2c-29" style="edgeStyle=orthogonalEdgeStyle;rounded=0;orthogonalLoop=1;jettySize=auto;html=1;entryX=0.5;entryY=1;entryDx=0;entryDy=0;" edge="1" parent="1" source="PuTpVyu4DHhZ1jbtTE2c-17" target="PuTpVyu4DHhZ1jbtTE2c-10">
          <mxGeometry relative="1" as="geometry" />
        </mxCell>
      </root>
    </mxGraphModel>
  </diagram>
  <diagram id="R7gc_pw-gVeOH11ZS6zt" name="Page-5">
    <mxGraphModel dx="1232" dy="1146" grid="1" gridSize="10" guides="1" tooltips="1" connect="1" arrows="1" fold="1" page="1" pageScale="1" pageWidth="850" pageHeight="1100" math="0" shadow="0">
      <root>
        <mxCell id="0" />
        <mxCell id="1" parent="0" />
        <mxCell id="a9dycZXSnbiCUVw_Jn0_-1" value="Student" style="swimlane;whiteSpace=wrap;html=1;" vertex="1" parent="1">
          <mxGeometry x="220" y="300" width="180" height="290" as="geometry" />
        </mxCell>
        <mxCell id="a9dycZXSnbiCUVw_Jn0_-2" style="edgeStyle=orthogonalEdgeStyle;rounded=0;orthogonalLoop=1;jettySize=auto;html=1;entryX=0.5;entryY=0;entryDx=0;entryDy=0;" edge="1" parent="a9dycZXSnbiCUVw_Jn0_-1" source="a9dycZXSnbiCUVw_Jn0_-3">
          <mxGeometry relative="1" as="geometry">
            <mxPoint x="87.5" y="110" as="targetPoint" />
          </mxGeometry>
        </mxCell>
        <mxCell id="a9dycZXSnbiCUVw_Jn0_-3" value="" style="ellipse;whiteSpace=wrap;html=1;aspect=fixed;fillColor=#000000;" vertex="1" parent="a9dycZXSnbiCUVw_Jn0_-1">
          <mxGeometry x="72.5" y="40" width="30" height="30" as="geometry" />
        </mxCell>
        <mxCell id="a9dycZXSnbiCUVw_Jn0_-4" value="Open &quot;Available parking&quot; page" style="rounded=1;whiteSpace=wrap;html=1;fillColor=#FFFFFF;fontSize=11;" vertex="1" parent="a9dycZXSnbiCUVw_Jn0_-1">
          <mxGeometry x="40" y="110" width="95" height="40" as="geometry" />
        </mxCell>
        <mxCell id="a9dycZXSnbiCUVw_Jn0_-5" value="" style="ellipse;html=1;shape=endState;fillColor=#000000;strokeColor=#ff0000;strokeWidth=2;fontSize=8;" vertex="1" parent="a9dycZXSnbiCUVw_Jn0_-1">
          <mxGeometry x="72.5" y="170" width="30" height="30" as="geometry" />
        </mxCell>
        <mxCell id="a9dycZXSnbiCUVw_Jn0_-6" value="system" style="swimlane;whiteSpace=wrap;html=1;" vertex="1" parent="1">
          <mxGeometry x="400" y="300" width="150" height="290" as="geometry" />
        </mxCell>
        <mxCell id="a9dycZXSnbiCUVw_Jn0_-7" value="" style="edgeStyle=orthogonalEdgeStyle;rounded=0;orthogonalLoop=1;jettySize=auto;html=1;" edge="1" parent="a9dycZXSnbiCUVw_Jn0_-6" source="a9dycZXSnbiCUVw_Jn0_-8" target="a9dycZXSnbiCUVw_Jn0_-9">
          <mxGeometry relative="1" as="geometry" />
        </mxCell>
        <mxCell id="a9dycZXSnbiCUVw_Jn0_-8" value="Retrieve parking details" style="rounded=1;whiteSpace=wrap;html=1;fillColor=#FFFFFF;fontSize=11;" vertex="1" parent="a9dycZXSnbiCUVw_Jn0_-6">
          <mxGeometry x="25" y="110" width="95" height="40" as="geometry" />
        </mxCell>
        <mxCell id="a9dycZXSnbiCUVw_Jn0_-9" value="show map with indication for empty parkings&amp;nbsp;" style="whiteSpace=wrap;html=1;fontSize=11;fillColor=#FFFFFF;rounded=1;" vertex="1" parent="a9dycZXSnbiCUVw_Jn0_-6">
          <mxGeometry x="25" y="165" width="95" height="40" as="geometry" />
        </mxCell>
        <mxCell id="a9dycZXSnbiCUVw_Jn0_-10" style="edgeStyle=orthogonalEdgeStyle;rounded=0;orthogonalLoop=1;jettySize=auto;html=1;entryX=0;entryY=0.5;entryDx=0;entryDy=0;" edge="1" parent="1" source="a9dycZXSnbiCUVw_Jn0_-4" target="a9dycZXSnbiCUVw_Jn0_-8">
          <mxGeometry relative="1" as="geometry">
            <Array as="points">
              <mxPoint x="425" y="430" />
            </Array>
          </mxGeometry>
        </mxCell>
        <mxCell id="a9dycZXSnbiCUVw_Jn0_-11" style="edgeStyle=orthogonalEdgeStyle;rounded=0;orthogonalLoop=1;jettySize=auto;html=1;" edge="1" parent="1" source="a9dycZXSnbiCUVw_Jn0_-9" target="a9dycZXSnbiCUVw_Jn0_-5">
          <mxGeometry relative="1" as="geometry">
            <mxPoint x="311" y="530" as="targetPoint" />
          </mxGeometry>
        </mxCell>
      </root>
    </mxGraphModel>
  </diagram>
  <diagram id="-BmHiSKVTtJEsRlhzoiY" name="Page-6">
    <mxGraphModel dx="1232" dy="1146" grid="1" gridSize="10" guides="1" tooltips="1" connect="1" arrows="1" fold="1" page="1" pageScale="1" pageWidth="850" pageHeight="1100" math="0" shadow="0">
      <root>
        <mxCell id="0" />
        <mxCell id="1" parent="0" />
        <mxCell id="d0cKqmuAJLs3CKvRmS8d-1" value="Student" style="swimlane;whiteSpace=wrap;html=1;" vertex="1" parent="1">
          <mxGeometry x="220" y="300" width="220" height="440" as="geometry" />
        </mxCell>
        <mxCell id="d0cKqmuAJLs3CKvRmS8d-2" style="edgeStyle=orthogonalEdgeStyle;rounded=0;orthogonalLoop=1;jettySize=auto;html=1;entryX=0.5;entryY=0;entryDx=0;entryDy=0;" edge="1" parent="d0cKqmuAJLs3CKvRmS8d-1" source="d0cKqmuAJLs3CKvRmS8d-3">
          <mxGeometry relative="1" as="geometry">
            <mxPoint x="117.5" y="110" as="targetPoint" />
          </mxGeometry>
        </mxCell>
        <mxCell id="d0cKqmuAJLs3CKvRmS8d-3" value="" style="ellipse;whiteSpace=wrap;html=1;aspect=fixed;fillColor=#000000;" vertex="1" parent="d0cKqmuAJLs3CKvRmS8d-1">
          <mxGeometry x="102.5" y="40" width="30" height="30" as="geometry" />
        </mxCell>
        <mxCell id="d0cKqmuAJLs3CKvRmS8d-4" value="Open &quot;Account settings&quot; page" style="rounded=1;whiteSpace=wrap;html=1;fillColor=#FFFFFF;fontSize=11;" vertex="1" parent="d0cKqmuAJLs3CKvRmS8d-1">
          <mxGeometry x="70" y="110" width="95" height="40" as="geometry" />
        </mxCell>
        <mxCell id="d0cKqmuAJLs3CKvRmS8d-5" style="edgeStyle=orthogonalEdgeStyle;rounded=0;orthogonalLoop=1;jettySize=auto;html=1;" edge="1" parent="d0cKqmuAJLs3CKvRmS8d-1" source="d0cKqmuAJLs3CKvRmS8d-6">
          <mxGeometry relative="1" as="geometry">
            <mxPoint x="117.5" y="340" as="targetPoint" />
          </mxGeometry>
        </mxCell>
        <mxCell id="d0cKqmuAJLs3CKvRmS8d-6" value="Choose modification type" style="rounded=1;whiteSpace=wrap;html=1;fillColor=#FFFFFF;fontSize=11;" vertex="1" parent="d0cKqmuAJLs3CKvRmS8d-1">
          <mxGeometry x="70" y="260" width="95" height="40" as="geometry" />
        </mxCell>
        <mxCell id="d0cKqmuAJLs3CKvRmS8d-7" style="edgeStyle=orthogonalEdgeStyle;rounded=0;orthogonalLoop=1;jettySize=auto;html=1;entryX=0.5;entryY=0;entryDx=0;entryDy=0;" edge="1" parent="d0cKqmuAJLs3CKvRmS8d-1" source="d0cKqmuAJLs3CKvRmS8d-11" target="d0cKqmuAJLs3CKvRmS8d-6">
          <mxGeometry relative="1" as="geometry" />
        </mxCell>
        <mxCell id="d0cKqmuAJLs3CKvRmS8d-8" value="yes" style="edgeLabel;html=1;align=center;verticalAlign=middle;resizable=0;points=[];" vertex="1" connectable="0" parent="d0cKqmuAJLs3CKvRmS8d-7">
          <mxGeometry x="0.263" relative="1" as="geometry">
            <mxPoint x="12" y="-5" as="offset" />
          </mxGeometry>
        </mxCell>
        <mxCell id="d0cKqmuAJLs3CKvRmS8d-9" style="edgeStyle=orthogonalEdgeStyle;rounded=0;orthogonalLoop=1;jettySize=auto;html=1;" edge="1" parent="d0cKqmuAJLs3CKvRmS8d-1" source="d0cKqmuAJLs3CKvRmS8d-11">
          <mxGeometry relative="1" as="geometry">
            <mxPoint x="60" y="200" as="targetPoint" />
          </mxGeometry>
        </mxCell>
        <mxCell id="d0cKqmuAJLs3CKvRmS8d-10" value="No" style="edgeLabel;html=1;align=center;verticalAlign=middle;resizable=0;points=[];" vertex="1" connectable="0" parent="d0cKqmuAJLs3CKvRmS8d-9">
          <mxGeometry x="-0.3178" relative="1" as="geometry">
            <mxPoint as="offset" />
          </mxGeometry>
        </mxCell>
        <mxCell id="d0cKqmuAJLs3CKvRmS8d-11" value="" style="rhombus;whiteSpace=wrap;html=1;fillColor=#FFFFFF;" vertex="1" parent="d0cKqmuAJLs3CKvRmS8d-1">
          <mxGeometry x="96.88" y="180" width="41.25" height="40" as="geometry" />
        </mxCell>
        <mxCell id="d0cKqmuAJLs3CKvRmS8d-12" value="Want to modify &lt;br&gt;car details?" style="text;html=1;align=center;verticalAlign=middle;resizable=0;points=[];autosize=1;strokeColor=none;fillColor=none;" vertex="1" parent="d0cKqmuAJLs3CKvRmS8d-1">
          <mxGeometry x="45" y="145" width="100" height="40" as="geometry" />
        </mxCell>
        <mxCell id="d0cKqmuAJLs3CKvRmS8d-13" value="" style="ellipse;html=1;shape=endState;fillColor=#000000;strokeColor=#ff0000;strokeWidth=2;fontSize=8;" vertex="1" parent="d0cKqmuAJLs3CKvRmS8d-1">
          <mxGeometry x="30" y="185" width="30" height="30" as="geometry" />
        </mxCell>
        <mxCell id="d0cKqmuAJLs3CKvRmS8d-14" style="edgeStyle=orthogonalEdgeStyle;rounded=0;orthogonalLoop=1;jettySize=auto;html=1;" edge="1" parent="d0cKqmuAJLs3CKvRmS8d-1" source="d0cKqmuAJLs3CKvRmS8d-15">
          <mxGeometry relative="1" as="geometry">
            <mxPoint x="270" y="360" as="targetPoint" />
          </mxGeometry>
        </mxCell>
        <mxCell id="d0cKqmuAJLs3CKvRmS8d-15" value="Enter the new details" style="rounded=1;whiteSpace=wrap;html=1;fillColor=#FFFFFF;fontSize=11;" vertex="1" parent="d0cKqmuAJLs3CKvRmS8d-1">
          <mxGeometry x="70" y="340" width="95" height="40" as="geometry" />
        </mxCell>
        <mxCell id="d0cKqmuAJLs3CKvRmS8d-16" value="system" style="swimlane;whiteSpace=wrap;html=1;" vertex="1" parent="1">
          <mxGeometry x="440" y="300" width="180" height="440" as="geometry" />
        </mxCell>
        <mxCell id="d0cKqmuAJLs3CKvRmS8d-17" value="Show account information" style="rounded=1;whiteSpace=wrap;html=1;fillColor=#FFFFFF;fontSize=11;" vertex="1" parent="d0cKqmuAJLs3CKvRmS8d-16">
          <mxGeometry x="25" y="110" width="95" height="40" as="geometry" />
        </mxCell>
        <mxCell id="d0cKqmuAJLs3CKvRmS8d-18" value="Update car details" style="rounded=1;whiteSpace=wrap;html=1;fillColor=#FFFFFF;fontSize=11;" vertex="1" parent="d0cKqmuAJLs3CKvRmS8d-16">
          <mxGeometry x="30" y="340" width="95" height="40" as="geometry" />
        </mxCell>
        <mxCell id="d0cKqmuAJLs3CKvRmS8d-19" style="edgeStyle=orthogonalEdgeStyle;rounded=0;orthogonalLoop=1;jettySize=auto;html=1;entryX=0;entryY=0.5;entryDx=0;entryDy=0;" edge="1" parent="1" source="d0cKqmuAJLs3CKvRmS8d-4" target="d0cKqmuAJLs3CKvRmS8d-17">
          <mxGeometry relative="1" as="geometry">
            <Array as="points">
              <mxPoint x="425" y="430" />
            </Array>
          </mxGeometry>
        </mxCell>
        <mxCell id="d0cKqmuAJLs3CKvRmS8d-20" value="" style="edgeStyle=orthogonalEdgeStyle;rounded=0;orthogonalLoop=1;jettySize=auto;html=1;entryX=1;entryY=0.5;entryDx=0;entryDy=0;" edge="1" parent="1" source="d0cKqmuAJLs3CKvRmS8d-17" target="d0cKqmuAJLs3CKvRmS8d-11">
          <mxGeometry relative="1" as="geometry">
            <mxPoint x="532.5" y="490" as="targetPoint" />
            <Array as="points">
              <mxPoint x="533" y="500" />
            </Array>
          </mxGeometry>
        </mxCell>
        <mxCell id="d0cKqmuAJLs3CKvRmS8d-21" style="edgeStyle=orthogonalEdgeStyle;rounded=0;orthogonalLoop=1;jettySize=auto;html=1;entryX=0.5;entryY=1;entryDx=0;entryDy=0;" edge="1" parent="1" source="d0cKqmuAJLs3CKvRmS8d-18" target="d0cKqmuAJLs3CKvRmS8d-13">
          <mxGeometry relative="1" as="geometry">
            <Array as="points">
              <mxPoint x="510" y="710" />
              <mxPoint x="265" y="710" />
            </Array>
          </mxGeometry>
        </mxCell>
      </root>
    </mxGraphModel>
  </diagram>
</mxfile>
